<svg width="24" height="24" viewBox="0 0 25 24" fill="none" xmlns="http://www.w3.org/2000/svg">
<g clip-path="url(#clip0_174_616)">
<path d="M18.5 11.25C19.3734 11.2493 20.2349 11.4524 21.016 11.843C21.7972 12.2335 22.4765 12.8009 23 13.5" stroke="#923DE7" stroke-width="1.5" stroke-linecap="round" stroke-linejoin="round"/>
<path d="M2 13.5C2.5235 12.8009 3.20281 12.2335 3.98398 11.843C4.76514 11.4524 5.62663 11.2493 6.5 11.25" stroke="#923DE7" stroke-width="1.5" stroke-linecap="round" stroke-linejoin="round"/>
<path d="M12.5 17.25C14.5711 17.25 16.25 15.5711 16.25 13.5C16.25 11.4289 14.5711 9.75 12.5 9.75C10.4289 9.75 8.75 11.4289 8.75 13.5C8.75 15.5711 10.4289 17.25 12.5 17.25Z" stroke="#923DE7" stroke-width="1.5" stroke-linecap="round" stroke-linejoin="round"/>
<path d="M7.25 20.25C7.7884 19.3364 8.5559 18.579 9.47665 18.0529C10.3974 17.5267 11.4395 17.25 12.5 17.25C13.5605 17.25 14.6026 17.5267 15.5233 18.0529C16.4441 18.579 17.2116 19.3364 17.75 20.25" stroke="#923DE7" stroke-width="1.5" stroke-linecap="round" stroke-linejoin="round"/>
<path d="M15.5938 7.5C15.734 6.95678 16.0238 6.46377 16.4302 6.07697C16.8366 5.69017 17.3433 5.42508 17.8927 5.31179C18.4422 5.19851 19.0125 5.24158 19.5387 5.43611C20.0649 5.63064 20.5261 5.96883 20.8697 6.41229C21.2134 6.85574 21.4258 7.38668 21.4829 7.9448C21.54 8.50293 21.4394 9.06587 21.1926 9.56971C20.9458 10.0735 20.5627 10.4981 20.0867 10.7951C19.6108 11.0921 19.061 11.2497 18.5 11.25" stroke="#923DE7" stroke-width="1.5" stroke-linecap="round" stroke-linejoin="round"/>
<path d="M6.49995 11.25C5.93892 11.2497 5.3892 11.0921 4.91324 10.7951C4.43727 10.4981 4.05413 10.0735 3.80733 9.56971C3.56053 9.06587 3.45996 8.50293 3.51703 7.9448C3.57411 7.38668 3.78655 6.85574 4.13022 6.41229C4.4739 5.96883 4.93504 5.63064 5.46127 5.43611C5.9875 5.24158 6.55774 5.19851 7.10722 5.31179C7.6567 5.42508 8.1634 5.69017 8.56979 6.07697C8.97617 6.46377 9.26594 6.95678 9.4062 7.5" stroke="#923DE7" stroke-width="1.5" stroke-linecap="round" stroke-linejoin="round"/>
</g>
<defs>
<clipPath id="clip0_174_616">
<rect width="24" height="24" fill="white" transform="translate(0.5)"/>
</clipPath>
</defs>
</svg>
