<svg width="16" height="17" viewBox="0 0 16 17" fill="none" xmlns="http://www.w3.org/2000/svg">
<g clip-path="url(#clip0_1333_1469)">
<path d="M13 3H3C2.72386 3 2.5 3.22386 2.5 3.5V13.5C2.5 13.7761 2.72386 14 3 14H13C13.2761 14 13.5 13.7761 13.5 13.5V3.5C13.5 3.22386 13.2761 3 13 3Z" stroke="#150426" stroke-linecap="round" stroke-linejoin="round"/>
<path d="M11 2V4" stroke="#150426" stroke-linecap="round" stroke-linejoin="round"/>
<path d="M5 2V4" stroke="#150426" stroke-linecap="round" stroke-linejoin="round"/>
<path d="M2.5 6H13.5" stroke="#150426" stroke-linecap="round" stroke-linejoin="round"/>
<path d="M8 9.5C8.41421 9.5 8.75 9.16421 8.75 8.75C8.75 8.33579 8.41421 8 8 8C7.58579 8 7.25 8.33579 7.25 8.75C7.25 9.16421 7.58579 9.5 8 9.5Z" fill="#150426"/>
<path d="M10.75 9.5C11.1642 9.5 11.5 9.16421 11.5 8.75C11.5 8.33579 11.1642 8 10.75 8C10.3358 8 10 8.33579 10 8.75C10 9.16421 10.3358 9.5 10.75 9.5Z" fill="#150426"/>
<path d="M5.25 12C5.66421 12 6 11.6642 6 11.25C6 10.8358 5.66421 10.5 5.25 10.5C4.83579 10.5 4.5 10.8358 4.5 11.25C4.5 11.6642 4.83579 12 5.25 12Z" fill="#150426"/>
<path d="M8 12C8.41421 12 8.75 11.6642 8.75 11.25C8.75 10.8358 8.41421 10.5 8 10.5C7.58579 10.5 7.25 10.8358 7.25 11.25C7.25 11.6642 7.58579 12 8 12Z" fill="#150426"/>
<path d="M10.75 12C11.1642 12 11.5 11.6642 11.5 11.25C11.5 10.8358 11.1642 10.5 10.75 10.5C10.3358 10.5 10 10.8358 10 11.25C10 11.6642 10.3358 12 10.75 12Z" fill="#150426"/>
</g>
<defs>
<clipPath id="clip0_1333_1469">
<rect width="16" height="16" fill="white" transform="translate(0 0.5)"/>
</clipPath>
</defs>
</svg>
