<svg width="24" height="25" viewBox="0 0 24 25" fill="none" xmlns="http://www.w3.org/2000/svg">
<g clip-path="url(#clip0_806_1348)">
<path d="M8.68972 20.9169H4.50003C4.30112 20.9169 4.11035 20.8379 3.9697 20.6972C3.82905 20.5565 3.75003 20.3658 3.75003 20.1669V15.9772C3.75012 15.7785 3.82902 15.588 3.96941 15.4475L15.5307 3.88624C15.6713 3.7457 15.862 3.66675 16.0608 3.66675C16.2596 3.66675 16.4503 3.7457 16.591 3.88624L20.7807 8.07312C20.9212 8.21376 21.0002 8.40445 21.0002 8.60328C21.0002 8.8021 20.9212 8.99279 20.7807 9.13343L9.21941 20.6975C9.07886 20.8379 8.88837 20.9168 8.68972 20.9169Z" stroke="#150426" stroke-width="1.5" stroke-linecap="round" stroke-linejoin="round"/>
<path d="M12.75 6.66675L18 11.9167" stroke="#150426" stroke-width="1.5" stroke-linecap="round" stroke-linejoin="round"/>
</g>
<defs>
<clipPath id="clip0_806_1348">
<rect width="24" height="24" fill="white" transform="translate(0 0.666748)"/>
</clipPath>
</defs>
</svg>
