<svg width="16" height="17" viewBox="0 0 16 17" fill="none" xmlns="http://www.w3.org/2000/svg">
<g clip-path="url(#clip0_55_534)">
<path d="M5.79313 13.624H3C2.86739 13.624 2.74021 13.5713 2.64645 13.4776C2.55268 13.3838 2.5 13.2566 2.5 13.124V10.3309C2.50006 10.1985 2.55266 10.0715 2.64625 9.97777L10.3538 2.27027C10.4475 2.17657 10.5746 2.12394 10.7072 2.12394C10.8397 2.12394 10.9669 2.17657 11.0606 2.27027L13.8538 5.06152C13.9474 5.15528 14.0001 5.28241 14.0001 5.41496C14.0001 5.54751 13.9474 5.67464 13.8538 5.76839L6.14625 13.4778C6.05255 13.5714 5.92556 13.624 5.79313 13.624Z" stroke="#FAFAFA" stroke-width="1.5" stroke-linecap="round" stroke-linejoin="round"/>
<path d="M8.5 4.12402L12 7.62402" stroke="#FAFAFA" stroke-width="1.5" stroke-linecap="round" stroke-linejoin="round"/>
</g>
<defs>
<clipPath id="clip0_55_534">
<rect width="16" height="16" fill="white" transform="translate(0 0.124023)"/>
</clipPath>
</defs>
</svg>
