<svg width="24" height="30" viewBox="0 0 24 30" fill="none" xmlns="http://www.w3.org/2000/svg">
<path d="M2 29.6387C0.89543 29.6387 0 28.7432 0 27.6387V2C0 0.895432 0.89543 0 2 0H4.43257C5.53714 0 6.43257 0.895431 6.43257 2V11.827H17.5674V2C17.5674 0.895432 18.4629 0 19.5674 0H22C23.1046 0 24 0.895431 24 2V27.6387C24 28.7432 23.1046 29.6387 22 29.6387H19.5674C18.4629 29.6387 17.5674 28.7432 17.5674 27.6387V16.8753H6.43257V27.6387C6.43257 28.7432 5.53714 29.6387 4.43257 29.6387H2Z" fill="#923DE7"/>
</svg>
