<svg width="24" height="24" viewBox="0 0 24 24" fill="none" xmlns="http://www.w3.org/2000/svg">
<path d="M20.438 6.06201H11.438C11.3054 6.06201 11.1782 6.00933 11.0844 5.91557C10.9907 5.8218 10.938 5.69462 10.938 5.56201C10.938 5.4294 10.9907 5.30223 11.0844 5.20846C11.1782 5.11469 11.3054 5.06201 11.438 5.06201H20.438C20.5706 5.06201 20.6978 5.11469 20.7915 5.20846C20.8853 5.30223 20.938 5.4294 20.938 5.56201C20.938 5.69462 20.8853 5.8218 20.7915 5.91557C20.6978 6.00933 20.5706 6.06201 20.438 6.06201Z" fill="#923DE7" stroke="#923DE7" stroke-width="0.3"/>
<path d="M20.438 12.5H11.438C11.3054 12.5 11.1782 12.4473 11.0844 12.3536C10.9907 12.2598 10.938 12.1326 10.938 12C10.938 11.8674 10.9907 11.7402 11.0844 11.6464C11.1782 11.5527 11.3054 11.5 11.438 11.5H20.438C20.5706 11.5 20.6978 11.5527 20.7915 11.6464C20.8853 11.7402 20.938 11.8674 20.938 12C20.938 12.1326 20.8853 12.2598 20.7915 12.3536C20.6978 12.4473 20.5706 12.5 20.438 12.5Z" fill="#923DE7" stroke="#923DE7" stroke-width="0.3"/>
<path d="M20.438 18.9351H11.438C11.3054 18.9351 11.1782 18.8824 11.0844 18.7886C10.9907 18.6948 10.938 18.5677 10.938 18.4351C10.938 18.3025 10.9907 18.1753 11.0844 18.0815C11.1782 17.9877 11.3054 17.9351 11.438 17.9351H20.438C20.5706 17.9351 20.6978 17.9877 20.7915 18.0815C20.8853 18.1753 20.938 18.3025 20.938 18.4351C20.938 18.5677 20.8853 18.6948 20.7915 18.7886C20.6978 18.8824 20.5706 18.9351 20.438 18.9351Z" fill="#923DE7" stroke="#923DE7" stroke-width="0.3"/>
<path d="M5.56201 8.06201C5.06756 8.06201 4.58421 7.91539 4.17309 7.64069C3.76196 7.36598 3.44153 6.97554 3.25231 6.51872C3.06309 6.06191 3.01359 5.55924 3.11005 5.07429C3.20651 4.58933 3.44461 4.14388 3.79425 3.79425C4.14388 3.44461 4.58933 3.20651 5.07429 3.11005C5.55924 3.01359 6.06191 3.06309 6.51872 3.25231C6.97554 3.44153 7.36598 3.76196 7.64069 4.17309C7.91539 4.58421 8.06201 5.06756 8.06201 5.56201C8.06201 5.89032 7.99735 6.21541 7.87171 6.51872C7.74607 6.82204 7.56193 7.09763 7.32978 7.32978C7.09763 7.56193 6.82204 7.74607 6.51872 7.87171C6.21541 7.99735 5.89032 8.06201 5.56201 8.06201ZM5.56201 4.06201C5.26534 4.06201 4.97533 4.14999 4.72866 4.31481C4.48198 4.47963 4.28973 4.7139 4.17619 4.98799C4.06266 5.26208 4.03296 5.56368 4.09083 5.85465C4.14871 6.14562 4.29157 6.41289 4.50135 6.62267C4.71113 6.83245 4.97841 6.97531 5.26938 7.03319C5.56035 7.09107 5.86195 7.06136 6.13604 6.94783C6.41013 6.8343 6.6444 6.64204 6.80922 6.39537C6.97404 6.14869 7.06201 5.85868 7.06201 5.56201C7.06201 5.16419 6.90398 4.78266 6.62267 4.50135C6.34137 4.22005 5.95984 4.06201 5.56201 4.06201Z" fill="#923DE7" stroke="#923DE7" stroke-width="0.3"/>
<path d="M5.56201 14.5C5.06756 14.5 4.58421 14.3534 4.17309 14.0787C3.76196 13.804 3.44153 13.4135 3.25231 12.9567C3.06309 12.4999 3.01359 11.9972 3.11005 11.5123C3.20651 11.0273 3.44461 10.5819 3.79425 10.2322C4.14388 9.8826 4.58933 9.6445 5.07429 9.54804C5.55924 9.45157 6.06191 9.50108 6.51872 9.6903C6.97554 9.87952 7.36598 10.2 7.64069 10.6111C7.91539 11.0222 8.06201 11.5055 8.06201 12C8.06201 12.663 7.79862 13.2989 7.32978 13.7678C6.86094 14.2366 6.22505 14.5 5.56201 14.5ZM5.56201 10.5C5.26534 10.5 4.97533 10.588 4.72866 10.7528C4.48198 10.9176 4.28973 11.1519 4.17619 11.426C4.06266 11.7001 4.03296 12.0017 4.09083 12.2926C4.14871 12.5836 4.29157 12.8509 4.50135 13.0607C4.71113 13.2704 4.97841 13.4133 5.26938 13.4712C5.56035 13.5291 5.86195 13.4994 6.13604 13.3858C6.41013 13.2723 6.6444 13.08 6.80922 12.8334C6.97404 12.5867 7.06201 12.2967 7.06201 12C7.06201 11.6022 6.90398 11.2206 6.62267 10.9393C6.34137 10.658 5.95984 10.5 5.56201 10.5Z" fill="#923DE7" stroke="#923DE7" stroke-width="0.3"/>
<path d="M5.56201 20.938C5.06756 20.938 4.58421 20.7914 4.17309 20.5167C3.76196 20.242 3.44153 19.8515 3.25231 19.3947C3.06309 18.9379 3.01359 18.4352 3.11005 17.9503C3.20651 17.4653 3.44461 17.0199 3.79425 16.6702C4.14388 16.3206 4.58933 16.0825 5.07429 15.986C5.55924 15.8896 6.06191 15.9391 6.51872 16.1283C6.97554 16.3175 7.36598 16.6379 7.64069 17.0491C7.91539 17.4602 8.06201 17.9435 8.06201 18.438C8.06201 19.101 7.79862 19.7369 7.32978 20.2058C6.86094 20.6746 6.22505 20.938 5.56201 20.938ZM5.56201 16.938C5.26534 16.938 4.97533 17.026 4.72866 17.1908C4.48198 17.3556 4.28973 17.5899 4.17619 17.864C4.06266 18.1381 4.03296 18.4397 4.09083 18.7306C4.14871 19.0216 4.29157 19.2889 4.50135 19.4987C4.71113 19.7084 4.97841 19.8513 5.26938 19.9092C5.56035 19.967 5.86195 19.9373 6.13604 19.8238C6.41013 19.7103 6.6444 19.518 6.80922 19.2713C6.97404 19.0247 7.06201 18.7347 7.06201 18.438C7.06201 18.0402 6.90398 17.6586 6.62267 17.3773C6.34137 17.096 5.95984 16.938 5.56201 16.938Z" fill="#923DE7" stroke="#923DE7" stroke-width="0.3"/>
</svg>
