<svg width="24" height="24" viewBox="0 0 24 24" fill="none" xmlns="http://www.w3.org/2000/svg">
<g clip-path="url(#clip0_813_1703)">
<path d="M4.54594 20.745C4.4932 20.889 4.48589 21.0457 4.52499 21.194C4.56409 21.3423 4.64771 21.4751 4.76459 21.5744C4.88147 21.6737 5.02599 21.7348 5.17866 21.7494C5.33133 21.764 5.48482 21.7315 5.61844 21.6562L21.3684 12.6478C21.4857 12.5829 21.5834 12.4878 21.6514 12.3724C21.7195 12.257 21.7553 12.1255 21.7553 11.9915C21.7553 11.8575 21.7195 11.726 21.6514 11.6106C21.5834 11.4952 21.4857 11.4001 21.3684 11.3353L5.61844 2.34933C5.48523 2.27483 5.33245 2.24274 5.18052 2.25735C5.02859 2.27197 4.88474 2.33259 4.76817 2.43112C4.65161 2.52965 4.56788 2.6614 4.52817 2.80878C4.48846 2.95615 4.49466 3.11213 4.54594 3.25589L7.5 12L4.54594 20.745Z" stroke="#923DE7" stroke-linecap="round" stroke-linejoin="round"/>
<path d="M13.5 12H7.5" stroke="#AB76E0" stroke-linecap="round" stroke-linejoin="round"/>
</g>
<defs>
<clipPath id="clip0_813_1703">
<rect width="24" height="24" fill="white"/>
</clipPath>
</defs>
</svg>
