<svg width="17" height="17" viewBox="0 0 17 17" fill="none" xmlns="http://www.w3.org/2000/svg">
<g clip-path="url(#clip0_113_725)">
<path d="M7.25 10.0732L10.5 6.82324" stroke="#FAFAFA" stroke-linecap="round" stroke-linejoin="round"/>
<path d="M14.4806 3.45947C14.5047 3.37394 14.5056 3.28353 14.4832 3.19756C14.4607 3.11158 14.4158 3.03313 14.3529 2.9703C14.2901 2.90747 14.2116 2.86251 14.1257 2.84007C14.0397 2.81762 13.9493 2.81849 13.8638 2.8426L1.86375 6.48135C1.76578 6.509 1.67858 6.56589 1.61382 6.64442C1.54905 6.72296 1.50979 6.81939 1.5013 6.92083C1.49281 7.02228 1.51548 7.12389 1.56629 7.2121C1.6171 7.30031 1.69362 7.37092 1.78563 7.41447L7.25 10.0732L9.90875 15.537C9.95231 15.629 10.0229 15.7055 10.1111 15.7563C10.1993 15.8071 10.3009 15.8298 10.4024 15.8213C10.5038 15.8128 10.6003 15.7735 10.6788 15.7088C10.7573 15.644 10.8142 15.5568 10.8419 15.4588L14.4806 3.45947Z" stroke="#FAFAFA" stroke-linecap="round" stroke-linejoin="round"/>
</g>
<defs>
<clipPath id="clip0_113_725">
<rect width="16" height="16" fill="white" transform="translate(0.5 0.823364)"/>
</clipPath>
</defs>
</svg>
