<svg width="24" height="24" viewBox="0 0 24 24" fill="none" xmlns="http://www.w3.org/2000/svg">
<path d="M10.255 3.00006C8.62233 3.00006 7.02632 3.4842 5.6688 4.39127C4.31129 5.29833 3.25323 6.58758 2.62843 8.09597C2.00364 9.60436 1.84016 11.2642 2.15868 12.8655C2.4772 14.4668 3.26341 15.9376 4.41788 17.0921C5.57235 18.2466 7.04324 19.0328 8.64454 19.3513C10.2458 19.6698 11.9056 19.5064 13.414 18.8816C14.9224 18.2568 16.2117 17.1987 17.1187 15.8412C18.0258 14.4837 18.5099 12.8877 18.5099 11.255C18.5076 9.06636 17.6372 6.96803 16.0896 5.42043C14.542 3.87283 12.4436 3.00237 10.255 3.00006ZM10.255 18.2399C8.87351 18.2399 7.52304 17.8303 6.37437 17.0628C5.2257 16.2952 4.33043 15.2043 3.80175 13.928C3.27308 12.6517 3.13475 11.2472 3.40427 9.8923C3.67378 8.53735 4.33904 7.29276 5.3159 6.31589C6.29276 5.33903 7.53736 4.67378 8.8923 4.40426C10.2472 4.13475 11.6517 4.27307 12.928 4.80175C14.2044 5.33042 15.2952 6.2257 16.0628 7.37437C16.8303 8.52304 17.2399 9.8735 17.2399 11.255C17.2378 13.1069 16.5013 14.8823 15.1918 16.1918C13.8823 17.5012 12.1069 18.2378 10.255 18.2399ZM15.335 11.255C15.335 11.4234 15.2681 11.5849 15.149 11.704C15.0299 11.8231 14.8684 11.89 14.7 11.89H10.255C10.0866 11.89 9.92507 11.8231 9.80599 11.704C9.6869 11.5849 9.62 11.4234 9.62 11.255V6.81003C9.62 6.64162 9.6869 6.48011 9.80599 6.36102C9.92507 6.24194 10.0866 6.17503 10.255 6.17503C10.4234 6.17503 10.5849 6.24194 10.704 6.36102C10.8231 6.48011 10.89 6.64162 10.89 6.81003V10.62H14.7C14.8684 10.62 15.0299 10.6869 15.149 10.806C15.2681 10.9251 15.335 11.0866 15.335 11.255Z" fill="#150426"/>
<path d="M21.5789 10.6845C20.8066 9.91218 19.5544 9.91222 18.7822 10.6846L12.1782 17.2893C11.9537 17.5139 11.7958 17.7964 11.7223 18.1053L11.1168 20.6482C11.0835 20.7882 11.1252 20.9355 11.2269 21.0373C11.3287 21.1391 11.476 21.1808 11.616 21.1474L14.1588 20.542C14.4678 20.4684 14.7504 20.3105 14.975 20.0859L21.579 13.4811C22.3512 12.7088 22.3512 11.4567 21.5789 10.6845ZM19.3684 11.2707C19.8169 10.8221 20.5442 10.8221 20.9928 11.2707C21.4413 11.7192 21.4413 12.4464 20.9928 12.895L20.5002 13.3876L18.8759 11.7632L19.3684 11.2707ZM18.2897 12.3494L12.2108 18.3948L11.6582 19.5C11.542 19.6162 11.7223 19.5762 12.2108 20.6053L12.0792 20.185L12.5287 18.2973C12.5667 18.1376 12.6483 17.9915 12.7644 17.8754L18.2897 12.3494Z" fill="#5E407C"/>
</svg>
