<svg width="16" height="16" viewBox="0 0 16 16" fill="none" xmlns="http://www.w3.org/2000/svg">
<g clip-path="url(#clip0_801_1834)">
<path d="M13.5 5.20687V13C13.5 13.1326 13.4473 13.2598 13.3536 13.3536C13.2598 13.4473 13.1326 13.5 13 13.5H3C2.86739 13.5 2.74021 13.4473 2.64645 13.3536C2.55268 13.2598 2.5 13.1326 2.5 13V3C2.5 2.86739 2.55268 2.74021 2.64645 2.64645C2.74021 2.55268 2.86739 2.5 3 2.5H10.7931C10.9256 2.50006 11.0526 2.55266 11.1462 2.64625L13.3538 4.85375C13.4473 4.94745 13.4999 5.07444 13.5 5.20687Z" stroke="#FAFAFA" stroke-width="1.5" stroke-linecap="round" stroke-linejoin="round"/>
<path d="M5 13.5V9.5C5 9.36739 5.05268 9.24021 5.14645 9.14645C5.24021 9.05268 5.36739 9 5.5 9H10.5C10.6326 9 10.7598 9.05268 10.8536 9.14645C10.9473 9.24021 11 9.36739 11 9.5V13.5" stroke="#FAFAFA" stroke-width="1.5" stroke-linecap="round" stroke-linejoin="round"/>
<path d="M9.5 4.5H6" stroke="#FAFAFA" stroke-width="1.5" stroke-linecap="round" stroke-linejoin="round"/>
</g>
<defs>
<clipPath id="clip0_801_1834">
<rect width="16" height="16" fill="white"/>
</clipPath>
</defs>
</svg>
