<svg width="24" height="24" viewBox="0 0 24 24" fill="none" xmlns="http://www.w3.org/2000/svg">
<g clip-path="url(#clip0_813_1736)">
<path d="M12 15.7495C14.0711 15.7495 15.75 14.0706 15.75 11.9995C15.75 9.92844 14.0711 8.24951 12 8.24951C9.92893 8.24951 8.25 9.92844 8.25 11.9995C8.25 14.0706 9.92893 15.7495 12 15.7495Z" stroke="#FFFFFF" stroke-width="1.5" stroke-linecap="round" stroke-linejoin="round"/>
<path d="M12.1922 19.3223C12.0665 19.3223 11.94 19.3223 11.8172 19.3223L8.81246 20.9995C7.64277 20.6061 6.55784 19.9954 5.61465 19.1995L5.6034 15.8245C5.53684 15.7195 5.47403 15.6136 5.4159 15.5048L2.42809 13.8033C2.19275 12.6129 2.19275 11.388 2.42809 10.1976L5.41309 8.50076C5.47403 8.39295 5.53684 8.28607 5.60059 8.18107L5.61559 4.80607C6.55793 4.00793 7.64257 3.39499 8.81246 2.99951L11.8125 4.6767C11.9381 4.6767 12.0647 4.6767 12.1875 4.6767L15.1875 2.99951C16.3572 3.39297 17.4421 4.00366 18.3853 4.79951L18.3965 8.17451C18.4631 8.27951 18.5259 8.38545 18.584 8.4942L21.57 10.1948C21.8053 11.3852 21.8053 12.6101 21.57 13.8004L18.585 15.4973C18.524 15.6051 18.4612 15.712 18.3975 15.817L18.3825 19.192C17.4408 19.9903 16.3568 20.6035 15.1875 20.9995L12.1922 19.3223Z" stroke="#FFFFFF" stroke-width="1.5" stroke-linecap="round" stroke-linejoin="round"/>
</g>
<defs>
<clipPath id="clip0_813_1736">
<rect width="24" height="24" fill="white"/>
</clipPath>
</defs>
</svg>
