<svg width="48" height="50" viewBox="0 0 48 50" fill="none" xmlns="http://www.w3.org/2000/svg">
<path d="M24.6488 35.3575C22.5962 35.3575 20.5896 34.7488 18.8829 33.6084C17.1762 32.468 15.8459 30.8471 15.0604 28.9507C14.2749 27.0543 14.0694 24.9675 14.4698 22.9543C14.8703 20.9411 15.8587 19.0918 17.3102 17.6404C18.7616 16.1889 20.6109 15.2005 22.6241 14.8C24.6373 14.3996 26.7241 14.6051 28.6205 15.3906C30.5169 16.1761 32.1378 17.5063 33.2782 19.2131C34.4186 20.9198 35.0273 22.9264 35.0273 24.979C35.0242 27.7306 33.9297 30.3686 31.984 32.3142C30.0384 34.2599 27.4004 35.3544 24.6488 35.3575ZM24.6488 16.3303C22.9383 16.3303 21.2661 16.8376 19.8439 17.7879C18.4216 18.7382 17.3131 20.089 16.6585 21.6693C16.0039 23.2497 15.8326 24.9886 16.1663 26.6663C16.5 28.344 17.3237 29.8851 18.5333 31.0946C19.7428 32.3042 21.2839 33.1279 22.9616 33.4616C24.6393 33.7953 26.3782 33.624 27.9586 32.9694C29.5389 32.3148 30.8897 31.2063 31.84 29.784C32.7903 28.3617 33.2976 26.6896 33.2976 24.979C33.295 22.6861 32.3829 20.4877 30.7615 18.8663C29.1402 17.245 26.9418 16.3329 24.6488 16.3303Z" fill="#897821"/>
<path d="M24.3081 12.0061C24.0787 12.0061 23.8588 11.9149 23.6966 11.7528C23.5344 11.5906 23.4432 11.3706 23.4432 11.1412V1.19519C23.4432 0.965813 23.5344 0.74583 23.6966 0.583635C23.8588 0.42144 24.0787 0.330322 24.3081 0.330322C24.5375 0.330322 24.7575 0.42144 24.9197 0.583635C25.0819 0.74583 25.173 0.965813 25.173 1.19519V11.1412C25.173 11.3706 25.0818 11.5906 24.9196 11.7528C24.7575 11.9149 24.5375 12.0061 24.3081 12.0061Z" fill="#897821"/>
<path d="M10.8109 25.5037H0.864865C0.635487 25.5037 0.415508 25.4125 0.253313 25.2504C0.0911181 25.0882 0 24.8682 0 24.6388C0 24.4094 0.0911181 24.1894 0.253313 24.0272C0.415508 23.865 0.635487 23.7739 0.864865 23.7739H10.8109C11.0403 23.7739 11.2602 23.865 11.4224 24.0272C11.5846 24.1894 11.6758 24.4094 11.6758 24.6388C11.6758 24.8682 11.5846 25.0882 11.4224 25.2504C11.2602 25.4125 11.0403 25.5037 10.8109 25.5037Z" fill="#897821"/>
<path d="M47.1351 25.5037H37.1891C36.9597 25.5037 36.7397 25.4125 36.5775 25.2504C36.4153 25.0882 36.3242 24.8682 36.3242 24.6388C36.3242 24.4094 36.4153 24.1894 36.5775 24.0272C36.7397 23.865 36.9597 23.7739 37.1891 23.7739H47.1351C47.3645 23.7739 47.5845 23.865 47.7467 24.0272C47.9089 24.1894 48 24.4094 48 24.6388C48 24.8682 47.9089 25.0882 47.7467 25.2504C47.5845 25.4125 47.3645 25.5037 47.1351 25.5037Z" fill="#897821"/>
<path d="M36.9164 16.0469C36.7442 16.0469 36.576 15.9955 36.4332 15.8993C36.2904 15.8031 36.1795 15.6665 36.1149 15.5069C36.0502 15.3474 36.0346 15.1721 36.0701 15.0037C36.1056 14.8352 36.1906 14.6811 36.3142 14.5613L40.4794 10.5203C40.5608 10.441 40.6571 10.3785 40.7628 10.3365C40.8684 10.2944 40.9813 10.2736 41.095 10.2752C41.2087 10.2769 41.3209 10.3009 41.4253 10.346C41.5297 10.391 41.6242 10.4562 41.7034 10.5378C41.7826 10.6194 41.8448 10.7159 41.8867 10.8216C41.9286 10.9273 41.9492 11.0402 41.9474 11.1539C41.9455 11.2676 41.9213 11.3798 41.8761 11.4841C41.8309 11.5884 41.7655 11.6828 41.6838 11.7618L37.5186 15.8028C37.3574 15.9597 37.1413 16.0473 36.9164 16.0469Z" fill="#897821"/>
<path d="M11.5168 16.0469C11.2919 16.0472 11.0758 15.9596 10.9146 15.8028L6.74945 11.7618C6.6677 11.6828 6.60235 11.5884 6.55711 11.4841C6.51188 11.3798 6.48765 11.2676 6.48583 11.1539C6.484 11.0402 6.50461 10.9273 6.54648 10.8216C6.58834 10.7159 6.65064 10.6194 6.72981 10.5378C6.80898 10.4562 6.90346 10.391 7.00786 10.346C7.11225 10.3009 7.22451 10.2769 7.3382 10.2752C7.45189 10.2736 7.56478 10.2944 7.67043 10.3365C7.77607 10.3785 7.87238 10.441 7.95386 10.5203L12.119 14.5613C12.2426 14.6811 12.3276 14.8352 12.3631 15.0037C12.3986 15.1721 12.383 15.3474 12.3183 15.5069C12.2537 15.6665 12.1428 15.8031 12 15.8993C11.8572 15.9955 11.689 16.0469 11.5168 16.0469Z" fill="#897821"/>
<path d="M8.2161 39.682C8.04614 39.6819 7.87997 39.6318 7.73832 39.5379C7.59667 39.444 7.48583 39.3104 7.41963 39.1538C7.35343 38.9973 7.33482 38.8247 7.3661 38.6577C7.39738 38.4906 7.47718 38.3365 7.59553 38.2145L11.7607 33.9252C11.9206 33.7608 12.1392 33.6667 12.3684 33.6634C12.5977 33.6602 12.8189 33.748 12.9834 33.9078C13.1479 34.0675 13.2422 34.286 13.2457 34.5153C13.2491 34.7446 13.1614 34.9658 13.0018 35.1304L8.83668 39.4197C8.75609 39.5028 8.65962 39.5688 8.55301 39.6139C8.44641 39.6589 8.33184 39.6821 8.2161 39.682Z" fill="#897821"/>
<path d="M41.9459 40.5468C41.8305 40.547 41.7163 40.524 41.6099 40.4791C41.5036 40.4343 41.4074 40.3685 41.327 40.2858L36.297 35.1316C36.2175 35.0504 36.1548 34.9543 36.1125 34.8488C36.0702 34.7433 36.049 34.6305 36.0504 34.5168C36.0517 34.4032 36.0754 34.2909 36.1201 34.1864C36.1649 34.0819 36.2297 33.9873 36.3111 33.9079C36.3924 33.8285 36.4887 33.766 36.5942 33.7238C36.6998 33.6817 36.8126 33.6607 36.9262 33.6622C37.0399 33.6637 37.1521 33.6875 37.2565 33.7324C37.361 33.7773 37.4555 33.8424 37.5348 33.9238L42.5648 39.078C42.6837 39.1997 42.764 39.3539 42.7957 39.521C42.8274 39.6882 42.8091 39.861 42.743 40.0178C42.6769 40.1747 42.566 40.3085 42.4243 40.4026C42.2825 40.4967 42.1161 40.5468 41.9459 40.5468Z" fill="#897821"/>
<path d="M24.3081 49.1955C24.0787 49.1955 23.8588 49.1044 23.6966 48.9422C23.5344 48.78 23.4432 48.56 23.4432 48.3307V38.3846C23.4432 38.2711 23.4656 38.1586 23.5091 38.0537C23.5525 37.9487 23.6162 37.8534 23.6966 37.7731C23.7769 37.6928 23.8722 37.6291 23.9771 37.5856C24.0821 37.5421 24.1945 37.5198 24.3081 37.5198C24.4217 37.5198 24.5342 37.5421 24.6391 37.5856C24.744 37.6291 24.8394 37.6928 24.9197 37.7731C25 37.8534 25.0637 37.9487 25.1072 38.0537C25.1506 38.1586 25.173 38.2711 25.173 38.3846V48.3307C25.173 48.56 25.0819 48.78 24.9197 48.9422C24.7575 49.1044 24.5375 49.1955 24.3081 49.1955Z" fill="#897821"/>
</svg>
