<svg width="32" height="33" viewBox="0 0 32 33" fill="none" xmlns="http://www.w3.org/2000/svg">
<path d="M16.4325 23.6912C15.0641 23.6912 13.7264 23.2854 12.5886 22.5252C11.4507 21.7649 10.5639 20.6843 10.0402 19.42C9.51655 18.1557 9.37953 16.7646 9.6465 15.4224C9.91347 14.0803 10.5724 12.8474 11.5401 11.8798C12.5077 10.9122 13.7405 10.2532 15.0827 9.98622C16.4248 9.71925 17.816 9.85627 19.0803 10.3799C20.3446 10.9036 21.4252 11.7904 22.1854 12.9283C22.9457 14.0661 23.3515 15.4038 23.3515 16.7722C23.3494 18.6066 22.6198 20.3653 21.3227 21.6624C20.0255 22.9595 18.2669 23.6891 16.4325 23.6912ZM16.4325 11.0064C15.2922 11.0064 14.1774 11.3446 13.2292 11.9782C12.281 12.6117 11.542 13.5122 11.1056 14.5658C10.6692 15.6193 10.555 16.7786 10.7775 17.8971C11 19.0156 11.5491 20.0429 12.3555 20.8493C13.1618 21.6557 14.1892 22.2048 15.3077 22.4273C16.4261 22.6497 17.5854 22.5356 18.639 22.0992C19.6926 21.6628 20.5931 20.9237 21.2266 19.9756C21.8602 19.0274 22.1983 17.9126 22.1983 16.7722C22.1966 15.2436 21.5886 13.778 20.5077 12.6971C19.4267 11.6162 17.9612 11.0082 16.4325 11.0064Z" fill="#897821"/>
<path d="M16.2054 8.12368C16.0524 8.12368 15.9058 8.06293 15.7977 7.9548C15.6895 7.84667 15.6288 7.70002 15.6288 7.5471V0.916423C15.6288 0.763504 15.6895 0.616849 15.7977 0.508719C15.9058 0.400589 16.0524 0.339844 16.2054 0.339844C16.3583 0.339844 16.5049 0.400589 16.6131 0.508719C16.7212 0.616849 16.7819 0.763504 16.7819 0.916423V7.54711C16.7819 7.70002 16.7212 7.84667 16.6131 7.9548C16.5049 8.06293 16.3583 8.12368 16.2054 8.12368Z" fill="#897821"/>
<path d="M7.20725 17.1219H0.576576C0.423658 17.1219 0.277005 17.0612 0.168875 16.953C0.0607454 16.8449 0 16.6983 0 16.5453C0 16.3924 0.0607454 16.2458 0.168875 16.1376C0.277005 16.0295 0.423658 15.9688 0.576576 15.9688H7.20726C7.36018 15.9688 7.50683 16.0295 7.61496 16.1376C7.72309 16.2458 7.78383 16.3924 7.78383 16.5453C7.78383 16.6983 7.72309 16.8449 7.61496 16.953C7.50683 17.0612 7.36017 17.1219 7.20725 17.1219Z" fill="#897821"/>
<path d="M31.4234 17.1219H24.7928C24.6398 17.1219 24.4932 17.0612 24.3851 16.953C24.2769 16.8449 24.2162 16.6983 24.2162 16.5453C24.2162 16.3924 24.2769 16.2458 24.3851 16.1376C24.4932 16.0295 24.6398 15.9688 24.7928 15.9688H31.4234C31.5764 15.9688 31.723 16.0295 31.8312 16.1376C31.9393 16.2458 32 16.3924 32 16.5453C32 16.6983 31.9393 16.8449 31.8312 16.953C31.723 17.0612 31.5764 17.1219 31.4234 17.1219Z" fill="#897821"/>
<path d="M24.6109 10.8176C24.4961 10.8176 24.3839 10.7833 24.2887 10.7192C24.1935 10.6551 24.1197 10.564 24.0765 10.4576C24.0334 10.3512 24.023 10.2344 24.0467 10.1221C24.0704 10.0098 24.127 9.90706 24.2094 9.82714L26.9862 7.13314C27.0405 7.08027 27.1047 7.03863 27.1751 7.0106C27.2456 6.98257 27.3208 6.9687 27.3966 6.96979C27.4724 6.97087 27.5473 6.98689 27.6169 7.01693C27.6864 7.04697 27.7494 7.09044 27.8022 7.14484C27.855 7.19925 27.8965 7.26353 27.9244 7.33401C27.9523 7.40449 27.9661 7.47977 27.9649 7.55556C27.9637 7.63135 27.9475 7.70616 27.9174 7.77571C27.8872 7.84525 27.8436 7.90817 27.7891 7.96085L25.0124 10.6548C24.9049 10.7594 24.7608 10.8178 24.6109 10.8176Z" fill="#897821"/>
<path d="M7.67779 10.8176C7.52786 10.8178 7.38379 10.7594 7.27632 10.6548L4.49955 7.96085C4.44505 7.90817 4.40148 7.84525 4.37133 7.77571C4.34117 7.70616 4.32502 7.63135 4.3238 7.55556C4.32259 7.47977 4.33633 7.40449 4.36424 7.33401C4.39215 7.26353 4.43368 7.19925 4.48646 7.14484C4.53924 7.09044 4.60223 7.04697 4.67182 7.01693C4.74142 6.98689 4.81626 6.97087 4.89205 6.96979C4.96784 6.9687 5.04311 6.98257 5.11354 7.0106C5.18396 7.03863 5.24817 7.08027 5.30249 7.13314L8.07925 9.82714C8.16164 9.90706 8.21831 10.0098 8.24198 10.1221C8.26566 10.2344 8.25526 10.3512 8.21214 10.4576C8.16902 10.564 8.09514 10.6551 7.99994 10.7192C7.90474 10.7833 7.79257 10.8176 7.67779 10.8176Z" fill="#897821"/>
<path d="M5.4774 26.5742C5.36409 26.5742 5.25331 26.5408 5.15888 26.4781C5.06445 26.4155 4.99055 26.3265 4.94642 26.2221C4.90229 26.1178 4.88988 26.0027 4.91073 25.8913C4.93159 25.78 4.98479 25.6772 5.06369 25.5959L7.84046 22.7363C7.94704 22.6268 8.09277 22.564 8.24561 22.5618C8.39846 22.5596 8.54591 22.6182 8.65558 22.7247C8.76524 22.8312 8.82814 22.9769 8.83044 23.1297C8.83275 23.2826 8.77428 23.4301 8.66788 23.5398L5.89112 26.3994C5.83739 26.4548 5.77308 26.4988 5.70201 26.5288C5.63094 26.5588 5.55456 26.5743 5.4774 26.5742Z" fill="#897821"/>
<path d="M27.964 27.1508C27.8871 27.1509 27.8109 27.1356 27.74 27.1057C27.6691 27.0758 27.605 27.032 27.5514 26.9768L24.198 23.5407C24.145 23.4865 24.1032 23.4225 24.075 23.3521C24.0468 23.2818 24.0327 23.2066 24.0336 23.1309C24.0345 23.0551 24.0503 22.9802 24.0801 22.9106C24.1099 22.8409 24.1532 22.7778 24.2074 22.7249C24.2617 22.672 24.3258 22.6303 24.3962 22.6022C24.4665 22.5741 24.5418 22.5601 24.6175 22.5611C24.6933 22.5621 24.7681 22.578 24.8377 22.6079C24.9073 22.6378 24.9704 22.6812 25.0232 22.7355L28.3766 26.1716C28.4558 26.2528 28.5094 26.3555 28.5305 26.467C28.5516 26.5784 28.5394 26.6937 28.4954 26.7982C28.4513 26.9027 28.3774 26.992 28.2829 27.0547C28.1884 27.1174 28.0774 27.1508 27.964 27.1508Z" fill="#897821"/>
<path d="M16.2054 32.9166C16.0524 32.9166 15.9058 32.8559 15.7977 32.7478C15.6895 32.6396 15.6288 32.493 15.6288 32.3401V25.7094C15.6288 25.6337 15.6437 25.5587 15.6727 25.4887C15.7016 25.4188 15.7441 25.3552 15.7977 25.3017C15.8512 25.2481 15.9148 25.2057 15.9847 25.1767C16.0547 25.1477 16.1296 25.1328 16.2054 25.1328C16.2811 25.1328 16.3561 25.1477 16.426 25.1767C16.496 25.2057 16.5595 25.2481 16.6131 25.3017C16.6666 25.3552 16.7091 25.4188 16.7381 25.4887C16.767 25.5587 16.7819 25.6337 16.7819 25.7094V32.3401C16.7819 32.493 16.7212 32.6396 16.6131 32.7478C16.5049 32.8559 16.3583 32.9166 16.2054 32.9166Z" fill="#897821"/>
</svg>
