<svg width="49" height="49" viewBox="0 0 49 49" fill="none" xmlns="http://www.w3.org/2000/svg">
<path d="M29.4297 43.3303C26.5297 43.3326 23.6529 42.8735 20.9367 41.9749C20.7813 41.9234 20.6389 41.8454 20.5176 41.7452C20.3963 41.6451 20.2986 41.5248 20.2299 41.3912C20.1612 41.2576 20.1229 41.1134 20.1172 40.9667C20.1116 40.8201 20.1386 40.6739 20.1968 40.5365C20.2551 40.3991 20.3433 40.2731 20.4566 40.1659C20.5699 40.0587 20.7059 39.9722 20.857 39.9114C21.0081 39.8507 21.1712 39.8168 21.337 39.8118C21.5029 39.8068 21.6682 39.8307 21.8236 39.8822C25.4246 41.0591 29.3105 41.3851 33.0976 40.8278C36.8846 40.2705 40.4417 38.8493 43.4176 36.7046C34.1344 36.7919 25.054 32.9124 20.5364 26.6875C17.6322 22.6858 16.6828 17.9769 17.7898 13.0698C18.6374 9.51137 20.3776 6.1666 22.882 3.28216C18.1003 4.62755 13.9852 7.38257 11.2236 11.0873C8.46194 14.7921 7.22092 19.2223 7.70766 23.6386C7.72462 23.7849 7.70875 23.9327 7.66097 24.0736C7.61319 24.2145 7.53446 24.3456 7.42924 24.4595C7.32404 24.5734 7.19442 24.6678 7.04786 24.7373C6.9013 24.8068 6.74068 24.8501 6.57518 24.8646C6.40968 24.8791 6.24258 24.8646 6.08345 24.8219C5.92431 24.7791 5.77626 24.7091 5.64781 24.6156C5.51937 24.5222 5.41304 24.4073 5.33492 24.2775C5.2568 24.1476 5.20844 24.0055 5.19259 23.8591C4.5787 18.3028 6.41908 12.7519 10.3285 8.36833C14.2379 3.98474 19.9133 1.10826 26.1667 0.340994C26.4282 0.308809 26.6945 0.349849 26.9282 0.458346C27.162 0.566843 27.3514 0.737349 27.4699 0.945924C27.5885 1.1545 27.6302 1.39067 27.5891 1.62126C27.5481 1.85186 27.4265 2.06531 27.2412 2.23163C20.7779 8.03703 16.8555 17.4771 22.6632 25.4805C27.2453 31.7939 37.1045 35.4049 46.6436 34.2636C46.8995 34.233 47.1598 34.2724 47.3896 34.3766C47.6194 34.4808 47.8075 34.6447 47.9288 34.8464C48.05 35.048 48.0985 35.2776 48.0676 35.5043C48.0368 35.731 47.9281 35.944 47.7563 36.1144C45.4465 38.3885 42.6206 40.2065 39.4628 41.4498C36.305 42.6931 32.8863 43.3339 29.4297 43.3303Z" fill="#150426"/>
<path d="M9.40721 43.9335C7.57697 43.9335 5.78782 43.4004 4.26603 42.4016C2.74423 41.4027 1.55815 39.9831 0.857744 38.3221C0.157338 36.6611 -0.025931 34.8334 0.331133 33.0701C0.688196 31.3068 1.56955 29.6871 2.86373 28.4158C4.15791 27.1446 5.80679 26.2788 7.60187 25.9281C9.39695 25.5773 11.2576 25.7574 12.9485 26.4454C14.6395 27.1334 16.0847 28.2985 17.1016 29.7933C18.1184 31.2882 18.6611 33.0456 18.6611 34.8435C18.6583 37.2535 17.6825 39.564 15.9476 41.2681C14.2128 42.9722 11.8606 43.9308 9.40721 43.9335ZM9.40721 28.2325C8.07613 28.2325 6.77494 28.6203 5.66818 29.3467C4.56142 30.0731 3.69881 31.1056 3.18942 32.3136C2.68003 33.5216 2.54674 34.8508 2.80643 36.1332C3.06611 37.4156 3.70708 38.5936 4.64831 39.5181C5.58953 40.4427 6.78872 41.0723 8.09423 41.3274C9.39974 41.5825 10.7529 41.4516 11.9827 40.9512C13.2125 40.4508 14.2636 39.6035 15.0031 38.5163C15.7426 37.4292 16.1373 36.151 16.1373 34.8435C16.1353 33.0908 15.4256 31.4104 14.1639 30.171C12.9022 28.9317 11.1915 28.2345 9.40721 28.2325Z" fill="#150426"/>
</svg>
