<svg width="32" height="32" viewBox="0 0 32 32" fill="none" xmlns="http://www.w3.org/2000/svg">
<path d="M19.5687 28.6667C17.6354 28.6681 15.7175 28.3621 13.9067 27.7631C13.8031 27.7287 13.7082 27.6767 13.6273 27.6099C13.5465 27.5432 13.4813 27.463 13.4355 27.3739C13.3897 27.2849 13.3642 27.1887 13.3604 27.0909C13.3566 26.9932 13.3747 26.8957 13.4135 26.8041C13.4523 26.7125 13.5112 26.6285 13.5867 26.557C13.6622 26.4856 13.7529 26.4279 13.8536 26.3874C13.9543 26.3469 14.063 26.3243 14.1736 26.321C14.2842 26.3177 14.3944 26.3336 14.498 26.3679C16.8987 27.1525 19.4893 27.3698 22.014 26.9983C24.5387 26.6268 26.9101 25.6794 28.894 24.2495C22.7052 24.3077 16.6516 21.7214 13.6399 17.5714C11.7037 14.9036 11.0708 11.7644 11.8088 8.49299C12.3739 6.1207 13.534 3.89085 15.2036 1.96789C12.0158 2.86482 9.27241 4.7015 7.43132 7.17133C5.59023 9.64116 4.76288 12.5947 5.08737 15.5389C5.09868 15.6364 5.0881 15.7349 5.05625 15.8289C5.0244 15.9228 4.9719 16.0102 4.90176 16.0861C4.83162 16.162 4.74521 16.225 4.64751 16.2713C4.5498 16.3177 4.44272 16.3465 4.33239 16.3562C4.22205 16.3659 4.11066 16.3562 4.00456 16.3277C3.89847 16.2992 3.79977 16.2525 3.71414 16.1902C3.62851 16.1279 3.55763 16.0513 3.50555 15.9648C3.45347 15.8782 3.42122 15.7834 3.41066 15.6858C3.0014 11.9816 4.22832 8.28106 6.8346 5.35867C9.44089 2.43628 13.2245 0.518626 17.3934 0.00711478C17.5677 -0.0143423 17.7453 0.013018 17.9011 0.0853493C18.0569 0.157681 18.1832 0.271351 18.2622 0.410401C18.3413 0.549452 18.369 0.706896 18.3417 0.860628C18.3143 1.01436 18.2332 1.15666 18.1097 1.26754C13.8009 5.1378 11.186 11.4312 15.0577 16.7668C18.1125 20.9757 24.6852 23.3831 31.0446 22.6222C31.2152 22.6018 31.3888 22.6281 31.542 22.6975C31.6952 22.767 31.8206 22.8763 31.9014 23.0107C31.9823 23.1451 32.0146 23.2982 31.994 23.4493C31.9735 23.6005 31.901 23.7424 31.7865 23.8561C30.2466 25.3721 28.3627 26.5841 26.2575 27.413C24.1523 28.2419 21.8732 28.669 19.5687 28.6667Z" fill="#150426"/>
<path d="M6.22041 29.0688C5.00025 29.0688 3.80748 28.7134 2.79295 28.0475C1.77842 27.3816 0.9877 26.4352 0.520763 25.3278C0.0538261 24.2205 -0.0683534 23.002 0.169689 21.8265C0.407731 20.651 0.995299 19.5712 1.85809 18.7237C2.72087 17.8762 3.82013 17.299 5.01685 17.0652C6.21356 16.8313 7.45401 16.9514 8.58129 17.41C9.70858 17.8687 10.6721 18.6454 11.35 19.642C12.0279 20.6386 12.3897 21.8102 12.3897 23.0088C12.3878 24.6154 11.7373 26.1558 10.5807 27.2919C9.42414 28.4279 7.85603 29.067 6.22041 29.0688ZM6.22041 18.6015C5.33302 18.6015 4.46556 18.86 3.72772 19.3442C2.98988 19.8285 2.4148 20.5168 2.07521 21.3222C1.73562 22.1275 1.64676 23.0137 1.81988 23.8686C1.99301 24.7235 2.42032 25.5088 3.0478 26.1252C3.67529 26.7416 4.47474 27.1613 5.34509 27.3314C6.21543 27.5014 7.11756 27.4142 7.93741 27.0806C8.75725 26.747 9.45799 26.1821 9.951 25.4573C10.444 24.7326 10.7071 23.8804 10.7071 23.0088C10.7058 21.8403 10.2326 20.7201 9.39151 19.8938C8.55038 19.0676 7.40995 18.6028 6.22041 18.6015Z" fill="#150426"/>
</svg>
