<svg width="190" height="139" viewBox="0 0 190 139" fill="none" xmlns="http://www.w3.org/2000/svg">
<g clip-path="url(#clip0_183_1632)">
<path opacity="0.1" d="M2.04504 66.9956C5.04526 78.4127 11.3911 88.2821 21.4195 93.0663C42.2673 103.009 89.2845 97.8811 124.375 91.9948C142.527 88.9505 158.481 80.5488 170.071 68.7253L2.04504 66.9956Z" fill="#923DE7"/>
<path opacity="0.1" d="M186.058 13.2538H166.805C165.891 13.2538 165.142 12.5871 165.142 11.7724C165.142 10.9578 165.891 10.2894 166.805 10.2894H170.135C169.22 10.2894 168.472 9.62269 168.472 8.80634C168.472 7.98998 169.22 7.32499 170.135 7.32499H167.758C166.843 7.32499 166.093 6.6583 166.093 5.84194C166.093 5.02559 166.843 4.3606 167.758 4.3606H177.807C175.578 3.43709 172.971 2.78061 169.967 2.43535C142.565 -0.699115 132.782 1.37409 129.331 3.50512C125.029 6.19442 120.251 8.06045 115.247 9.00532C98.3405 12.1126 66.7233 15.8508 38.0667 7.8148C23.8239 3.81296 13.2376 10.5666 6.89343 21.8561H189.402C189.164 18.5754 188.451 15.5447 187.141 12.8932C186.831 13.129 186.45 13.2559 186.058 13.2538Z" fill="#923DE7"/>
<path opacity="0.1" d="M0.412826 43.1648C-0.3267 49.8048 -0.0753134 56.5156 1.15899 63.0839L170.201 68.5926C174.854 63.8405 178.807 58.4694 181.946 52.6362L0.412826 43.1648ZM67.2709 57.3745H63.9425C64.8579 57.3745 65.6075 58.0429 65.6075 58.8575C65.6075 59.6722 64.8579 60.3389 63.9425 60.3389H44.6889C43.7752 60.3389 43.0256 59.6722 43.0256 58.8575C43.0256 58.0429 43.7752 57.3745 44.6889 57.3745H48.0191C47.1036 57.3745 46.3557 56.7078 46.3557 55.8932C46.3557 55.0785 47.1036 54.4101 48.0191 54.4101H45.6406C44.7252 54.4101 43.9756 53.7434 43.9756 52.9288C43.9756 52.1141 44.7252 51.4457 45.6406 51.4457H64.8942C65.8096 51.4457 66.5575 52.1124 66.5575 52.9288C66.5575 53.7451 65.8096 54.4101 64.8942 54.4101H67.2709C68.1863 54.4101 68.9342 55.0768 68.9342 55.8932C68.9342 56.7095 68.1863 57.3745 67.2709 57.3745Z" fill="#923DE7"/>
<path opacity="0.1" d="M189.409 21.9583L4.85702 25.955C2.61161 31.0963 1.12273 36.9095 0.437012 42.9335H186.176C187.385 39.4091 188.282 35.7883 188.857 32.1117C189.411 28.5724 189.632 25.1488 189.409 21.9583ZM37.9078 35.0625H34.5794C35.4948 35.0625 36.2444 35.7309 36.2444 36.5455C36.2444 37.3602 35.4948 38.0286 34.5794 38.0286H15.3258C14.4121 38.0286 13.6625 37.3602 13.6625 36.5455C13.6625 35.7309 14.4121 35.0625 15.3258 35.0625H18.656C17.7405 35.0625 16.9926 34.3958 16.9926 33.5811C16.9926 32.7665 17.7405 32.0981 18.656 32.0981H16.2775C15.3621 32.0981 14.6125 31.4314 14.6125 30.6167C14.6125 29.8021 15.3621 29.1337 16.2775 29.1337H35.5311C36.4465 29.1337 37.1944 29.8004 37.1944 30.6167C37.1944 31.4331 36.4465 32.0981 35.5311 32.0981H37.9078C38.8232 32.0981 39.5711 32.7665 39.5711 33.5811C39.5711 34.3958 38.8232 35.0625 37.9078 35.0625Z" fill="#923DE7"/>
<path opacity="0.1" d="M94.1485 133.675C136.787 133.675 171.353 130.544 171.353 126.681C171.353 122.819 136.787 119.688 94.1485 119.688C51.5097 119.688 16.9442 122.819 16.9442 126.681C16.9442 130.544 51.5097 133.675 94.1485 133.675Z" fill="#923DE7"/>
<path d="M172.835 68.9174C172.834 68.9055 172.834 68.8936 172.835 68.8817C172.835 68.863 172.835 68.846 172.835 68.8289C172.8 68.6342 172.725 68.4484 172.615 68.283C172.22 67.6601 171.669 67.1472 171.016 66.7932C169.876 66.1775 168.309 65.9139 167.853 64.7387C167.713 64.3747 167.71 63.9784 167.641 63.5975C167.52 63.0039 167.243 62.4521 166.837 61.9974C166.431 61.5428 165.91 61.2013 165.328 61.0072C164.786 60.8286 164.2 60.7793 163.673 60.5582C162.495 60.065 161.874 58.849 161.347 57.7248C160.665 56.2735 159.983 54.8216 159.302 53.3692C158.784 53.626 158.113 53.5052 157.628 53.1838C157.16 52.841 156.788 52.3877 156.545 51.8657C155.842 50.5221 155.54 49 154.714 47.721C153.889 46.4421 152.239 45.4318 150.781 45.988C150.497 46.128 150.202 46.2479 149.9 46.3468C148.652 46.6342 147.27 45.2294 146.201 45.9114C146.023 46.0236 145.878 46.1796 145.781 46.3638C145.78 46.3525 145.78 46.3411 145.781 46.3298C145.642 46.6065 145.564 46.9091 145.553 47.2176C145.553 47.2805 145.553 47.3418 145.553 47.4013C145.553 47.4115 145.553 47.4217 145.553 47.4319C145.553 47.6768 145.568 47.9251 145.572 48.1734C145.576 48.3819 145.56 48.5904 145.524 48.7959V48.7789C145.503 48.8945 145.473 49.0083 145.434 49.119C145.156 49.8538 144.385 50.3351 144.024 51.0256V50.9915C143.984 51.0667 143.948 51.1445 143.919 51.2245C143.855 51.4056 143.821 51.5958 143.82 51.7875C143.789 53.0852 145.187 54.3063 145.349 55.6992C145.465 56.6856 145.695 57.002 146.546 57.5598L146.733 57.6823C146.658 57.6823 146.582 57.6925 146.498 57.6942C146.465 57.6948 146.432 57.6982 146.399 57.7044C146.249 57.6636 146.091 57.6563 145.938 57.6827C145.784 57.7092 145.639 57.7689 145.511 57.8574C144.859 58.3677 143.314 57.9748 142.629 57.8574C141.943 57.7401 139.594 58.0564 139.266 59.3388C138.938 60.6212 138.374 63.2675 138.374 63.2675C138.374 63.2675 138.374 64.9461 138.165 65.2591C138.157 65.2811 138.157 65.3051 138.165 65.3271C138.165 65.7982 138.183 68.63 137.72 69.3596C137.606 69.5296 137.614 69.9055 137.699 70.3681C137.212 70.9855 136.754 71.7066 136.835 72.1794C136.984 73.1471 138.977 76.1898 141.834 74.5605C141.834 74.5605 143.459 71.6335 141.414 70.0773L141.502 69.7371C142.121 70.4855 142.579 71.0229 142.579 71.0229C142.579 71.0229 142.603 71.0858 142.641 71.193H142.579C142.845 71.9082 143.007 72.6573 143.059 73.4176C143.051 73.6963 143 73.9722 142.907 74.2356H142.96C142.945 74.2934 142.927 74.3513 142.907 74.4057C142.806 74.6929 142.619 74.9428 142.37 75.1217C140.941 76.1183 139.305 83.2359 139.305 83.2359C139.305 83.2359 136.065 94.7415 135.417 95.3963C134.882 95.9337 138.247 97.4473 140.772 97.2671C141.124 97.2464 141.473 97.1813 141.808 97.0732C141.824 97.2433 141.841 97.4133 141.858 97.5681C141.912 98.0783 141.967 98.5511 142.002 98.6991C142.091 99.0699 142.269 102.856 142.269 102.856C142.269 102.856 141.905 105.315 141.993 107.026C141.993 107.143 142.009 107.256 142.019 107.366L141.705 107.414C141.228 108.468 143.192 117.266 143.459 118.006C143.637 118.589 143.737 119.192 143.757 119.8C143.757 119.8 143.584 120.426 143.727 120.768C143.816 120.977 143.875 121.197 143.9 121.423C143.9 121.423 143.782 121.991 143.96 122.362C144.138 122.732 143.931 123.382 143.931 123.382C143.931 123.382 143.872 125.945 143.337 127.34C143.191 127.715 143.149 128.121 143.214 128.518C143.279 128.915 143.45 129.287 143.708 129.598C143.745 129.647 143.786 129.693 143.829 129.736C143.829 129.736 146.783 129.76 147.303 129.736H147.37C147.579 129.707 148.114 127.401 147.638 126.29C147.161 125.18 147.579 123.812 147.579 123.812V121.792C147.579 121.792 148.114 121.305 147.579 120.261C147.043 119.217 147.132 118.901 147.132 118.901C147.132 118.901 147.727 117.22 147.102 116.679C146.477 116.139 147.221 114.087 147.221 114.087L147.432 107.25C147.322 107.215 147.209 107.187 147.095 107.165C147.083 107.053 147.071 106.937 147.059 106.815C146.936 105.577 146.831 103.893 147.104 103.414C147.377 102.934 147.508 98.7467 147.551 95.8367L150.273 95.9388C150.33 97.2994 150.391 98.5409 150.429 98.6991C150.519 99.0699 150.698 102.856 150.698 102.856C150.698 102.856 150.332 105.315 150.42 107.026C150.42 107.143 150.436 107.256 150.446 107.366L150.132 107.414C149.655 108.468 151.619 117.266 151.887 118.006C152.064 118.589 152.165 119.192 152.185 119.8C152.185 119.8 152.013 120.426 152.154 120.768C152.244 120.977 152.302 121.197 152.327 121.423C152.327 121.423 152.21 121.991 152.388 122.362C152.565 122.732 152.358 123.382 152.358 123.382C152.358 123.382 152.299 125.945 151.764 127.34C151.621 127.715 151.58 128.122 151.648 128.518C151.715 128.914 151.887 129.285 152.147 129.595C152.185 129.643 152.225 129.689 152.268 129.733C152.268 129.733 155.222 129.756 155.742 129.733H155.809C156.018 129.704 156.554 127.397 156.077 126.287C155.6 125.176 156.018 123.809 156.018 123.809V121.792C156.018 121.792 156.554 121.305 156.018 120.261C155.483 119.217 155.571 118.901 155.571 118.901C155.571 118.901 156.167 117.22 155.542 116.679C154.916 116.139 155.661 114.087 155.661 114.087L155.875 107.25C155.762 107.215 155.646 107.186 155.529 107.165C155.517 107.053 155.505 106.937 155.493 106.815C155.371 105.577 155.265 103.893 155.538 103.414C155.757 103.021 155.884 100.49 155.941 98.0188C155.941 97.8487 155.941 97.6786 155.954 97.5086C157.205 97.4573 158.451 97.3198 159.682 97.097C159.682 97.097 158.226 92.0271 158.671 91.2022C158.863 90.8468 158.587 88.9538 158.208 86.9146C158.736 87.3351 159.392 87.5687 160.07 87.5779C160.722 88.811 162.703 91.6478 163.818 92.0849C165.128 92.5951 164.145 88.0712 163.521 87.4164C163.226 87.0589 162.978 86.6663 162.782 86.248C162.799 86.2276 162.818 86.2105 162.836 86.1918C162.853 86.1731 162.867 81.3787 162.568 81.4655C162.269 81.5522 161.913 80.7529 161.913 80.7529L160.991 72.7815L160.604 69.4446C160.927 69.6793 161.311 69.829 161.64 70.062C162.539 70.71 162.832 71.8478 163.226 72.8546C163.551 73.6829 164.007 74.5043 164.755 75.0247C165.503 75.5452 166.599 75.6829 167.345 75.1557C168.036 74.6608 168.24 73.7679 168.392 72.9532C169.646 73.3869 171.168 72.227 171.006 70.96C170.966 70.647 170.848 70.3052 171.014 70.0314C171.346 69.4905 172.396 69.8052 172.741 69.2711C172.799 69.1788 172.829 69.0719 172.828 68.9633C172.833 68.9395 172.835 68.9293 172.835 68.9174ZM156.061 73.3019C156.042 73.6063 156.467 76.052 156.813 77.9874C156.529 76.7816 155.961 75.4942 154.842 74.6115C154.842 74.6115 154.842 74.5502 154.828 74.4414H154.842C154.842 74.4414 154.795 73.955 154.788 73.2628C154.79 72.6492 154.837 72.0365 154.927 71.4294V71.4141H154.904C154.904 71.3631 154.918 71.3103 154.927 71.2593C154.995 70.7469 155.137 70.2466 155.346 69.7729C155.439 69.5872 155.546 69.4087 155.666 69.2388C155.851 70.8834 156.079 72.9941 156.061 73.3019ZM156.991 78.9688C157.143 79.8038 157.251 80.3906 157.251 80.3906L158.169 86.5915V86.6204C157.675 84.003 157.044 81.2444 157.044 81.2444C157.108 80.4861 157.091 79.7233 156.991 78.9688Z" fill="url(#paint0_linear_183_1632)"/>
<path d="M145.75 56.0394C145.577 54.4679 143.85 53.1124 144.368 51.6175C144.65 50.8028 145.53 50.3045 145.828 49.4949C146.024 48.9609 145.936 48.3742 145.938 47.8061C145.94 47.2381 146.075 46.6037 146.555 46.289C147.591 45.6087 148.924 47.0085 150.134 46.7227C150.426 46.6243 150.71 46.5049 150.985 46.3656C152.396 45.8128 153.992 46.8197 154.785 48.0918C155.578 49.364 155.875 50.8811 156.555 52.2178C156.788 52.7341 157.148 53.1848 157.602 53.5291C158.072 53.8488 158.714 53.9696 159.222 53.7145L161.2 58.0514C161.718 59.1688 162.312 60.3797 163.445 60.8712C163.953 61.0906 164.52 61.1399 165.045 61.3185C165.616 61.5167 166.123 61.859 166.517 62.3112C166.911 62.7634 167.178 63.3096 167.29 63.8951C167.358 64.2761 167.359 64.6707 167.496 65.0329C167.936 66.203 169.451 66.465 170.555 67.0738C171.193 67.4283 171.729 67.9384 172.109 68.5552C172.282 68.8494 172.431 69.2355 172.246 69.5246C171.912 70.0552 170.898 69.7423 170.577 70.2814C170.415 70.5535 170.529 70.8937 170.577 71.2066C170.734 72.4669 169.261 73.6217 168.048 73.1897C167.902 74.001 167.703 74.8904 167.036 75.382C166.32 75.9092 165.257 75.7697 164.534 75.2527C163.81 74.7357 163.371 73.9176 163.057 73.0928C162.675 72.0893 162.39 70.9566 161.521 70.312C161.207 70.0807 160.83 69.9311 160.523 69.6981C159.832 69.1776 159.487 68.3188 159.24 67.4871C158.92 66.4497 158.666 65.3833 158.203 64.4037C157.74 63.424 157.008 62.5124 156.004 62.0651C155.063 61.6485 153.978 61.6757 153.006 61.3372C151.332 60.7556 150.094 59.3695 148.429 58.7164C147.896 58.4961 147.392 58.2152 146.926 57.8796C146.088 57.3371 145.86 57.0224 145.75 56.0394Z" fill="#3F3D56"/>
<g opacity="0.1">
<path d="M145.905 49.1617C145.941 49.0952 145.972 49.0264 145.999 48.9559C146.194 48.4218 146.107 47.8351 146.109 47.267C146.109 47.0776 146.127 46.8885 146.163 46.7024C146.003 47.0384 145.926 47.4065 145.936 47.7773C145.935 48.2348 145.99 48.7144 145.905 49.1617Z" fill="#150426"/>
<path d="M167.199 74.8481C166.482 75.3736 165.42 75.2358 164.696 74.7171C163.972 74.1984 163.532 73.3837 163.226 72.5555C162.844 71.552 162.561 70.4193 161.691 69.7748C161.378 69.5435 161 69.3921 160.694 69.1608C160.003 68.6404 159.658 67.7815 159.409 66.9583C159.089 65.9209 158.837 64.8545 158.372 63.8749C157.908 62.8952 157.179 61.9836 156.174 61.5364C155.234 61.1197 154.149 61.1469 153.177 60.8084C151.502 60.2268 150.263 58.8407 148.6 58.1876C148.067 57.9666 147.562 57.6858 147.095 57.3508C146.277 56.7947 146.059 56.48 145.938 55.4987C145.765 54.0259 144.245 52.7418 144.482 51.354C144.443 51.4291 144.409 51.5063 144.38 51.5853C143.862 53.082 145.589 54.4375 145.762 56.0072C145.874 56.9886 146.107 57.3032 146.919 57.8593C147.386 58.1944 147.891 58.4752 148.424 58.6961C150.087 59.3492 151.325 60.737 153.001 61.317C153.973 61.6571 155.058 61.6282 155.998 62.0449C157.003 62.4922 157.725 63.4055 158.196 64.3834C158.668 65.3613 158.92 66.4243 159.233 67.4668C159.487 68.29 159.82 69.1489 160.518 69.6693C160.83 69.9006 161.209 70.052 161.514 70.2833C162.378 70.9279 162.668 72.0606 163.05 73.064C163.364 73.8889 163.805 74.7052 164.528 75.2222C165.252 75.7393 166.314 75.8787 167.031 75.3532C167.489 75.013 167.722 74.4943 167.876 73.9382C167.739 74.2969 167.505 74.6117 167.199 74.8481Z" fill="#150426"/>
<path d="M170.748 69.7474C170.682 69.8693 170.653 70.0076 170.665 70.1453C171.056 69.7661 171.937 69.9889 172.244 69.5007C172.315 69.3801 172.343 69.2393 172.323 69.1011C171.923 69.4752 171.042 69.2524 170.748 69.7474Z" fill="#150426"/>
<path d="M168.211 72.6556C168.178 72.8257 168.145 73.0077 168.104 73.1846C169.161 73.5094 170.382 72.6743 170.555 71.6199C170.135 72.4311 169.099 72.9737 168.211 72.6556Z" fill="#150426"/>
</g>
<path d="M147.981 56.8575C147.981 56.8575 148.557 58.0004 146.859 58.0242C145.161 58.0481 147.952 65.4463 147.952 65.4463L150.774 68.9838L154.286 67.113L154.488 61.953L154.747 58.8355C154.747 58.8355 151.465 57.7861 152.07 56.3983C152.674 55.0105 147.981 56.8575 147.981 56.8575Z" fill="#FBBEBE"/>
<path d="M158.174 87.0218C158.174 87.0218 160.247 89.0304 162.665 86.3654L160.808 84.4248H158.459L158.174 87.0218Z" fill="#5E407C"/>
<path opacity="0.1" d="M158.398 84.4248L158.113 87.0218C158.113 87.0218 160.186 89.0304 162.604 86.3654" fill="#150426"/>
<path d="M161.886 84.7786C161.886 84.7786 162.72 86.9334 163.324 87.5848C163.929 88.2362 164.879 92.7431 163.613 92.2329C162.347 91.7227 159.929 87.9249 159.784 87.2736C159.639 86.6222 159.583 84.7786 159.583 84.7786H161.886Z" fill="#FBBEBE"/>
<path d="M143.779 95.8335L154.947 96.2587L153.652 91.6088L148.026 91.4966L143.779 95.8335Z" fill="#5E407C"/>
<path opacity="0.1" d="M145.332 95.8335L156.502 96.2587L155.206 91.6088L149.579 91.4966L145.332 95.8335Z" fill="#150426"/>
<path d="M147.434 103.509C147.17 103.994 147.271 105.67 147.391 106.91C147.467 107.699 147.55 108.307 147.55 108.307C147.55 108.307 143.375 109.582 142.743 108.477C142.582 108.196 142.503 107.705 142.475 107.128C142.389 105.427 142.743 102.977 142.743 102.977C142.743 102.977 142.57 99.2077 142.484 98.8386C142.449 98.6906 142.395 98.2212 142.344 97.7127C142.268 96.9576 142.195 96.1174 142.195 96.1174L147.895 93.1411C147.895 93.1411 147.895 93.699 147.885 94.5578C147.854 97.2552 147.762 102.914 147.434 103.509Z" fill="#FBBEBE"/>
<path opacity="0.1" d="M147.55 108.307C147.55 108.307 143.375 109.582 142.743 108.477C142.582 108.196 142.503 107.705 142.475 107.128C143.339 106.999 145.967 106.642 147.391 106.91C147.467 107.7 147.55 108.307 147.55 108.307Z" fill="#150426"/>
<path d="M147.693 129.736H147.627C147.125 129.755 144.268 129.736 144.268 129.736C144.226 129.693 144.187 129.648 144.15 129.6C143.898 129.289 143.731 128.919 143.666 128.525C143.601 128.132 143.64 127.729 143.779 127.355C144.297 125.965 144.354 123.414 144.354 123.414C144.354 123.414 144.556 122.763 144.384 122.394C144.211 122.025 144.325 121.459 144.325 121.459C144.298 121.235 144.24 121.015 144.152 120.807C144.009 120.467 144.181 119.843 144.181 119.843C144.162 119.238 144.065 118.638 143.893 118.057C143.634 117.321 141.734 108.562 142.195 107.512C142.195 107.512 146.225 106.832 147.752 107.342L147.55 114.145C147.55 114.145 146.829 116.186 147.434 116.725C148.038 117.264 147.463 118.936 147.463 118.936C147.463 118.936 147.377 119.248 147.895 120.297C148.413 121.346 147.895 121.828 147.895 121.828V123.84C147.895 123.84 147.493 125.2 147.952 126.306C148.411 127.411 147.895 129.7 147.693 129.736Z" fill="#3F3D56"/>
<path d="M155.602 103.509C155.338 103.994 155.44 105.67 155.559 106.91C155.635 107.699 155.718 108.307 155.718 108.307C155.718 108.307 151.543 109.582 150.911 108.477C150.75 108.196 150.671 107.705 150.643 107.128C150.557 105.427 150.911 102.976 150.911 102.976C150.911 102.976 150.738 99.2076 150.652 98.8385C150.605 98.6396 150.524 96.7415 150.46 95.0391C150.406 93.5867 150.363 92.2737 150.363 92.2737L156.063 93.1411C156.063 93.1411 156.063 95.6088 155.992 98.1447C155.93 100.604 155.814 103.124 155.602 103.509Z" fill="#FBBEBE"/>
<path opacity="0.1" d="M155.718 108.307C155.718 108.307 151.543 109.582 150.911 108.477C150.75 108.196 150.671 107.705 150.643 107.128C151.507 106.999 154.136 106.642 155.559 106.91C155.635 107.7 155.718 108.307 155.718 108.307Z" fill="#150426"/>
<path d="M155.861 129.736H155.795C155.293 129.755 152.436 129.736 152.436 129.736C152.394 129.693 152.355 129.647 152.319 129.6C152.066 129.289 151.899 128.919 151.834 128.525C151.769 128.132 151.808 127.729 151.947 127.355C152.465 125.959 152.517 123.408 152.517 123.408C152.517 123.408 152.719 122.756 152.547 122.387C152.374 122.018 152.488 121.452 152.488 121.452C152.461 121.228 152.403 121.008 152.315 120.8C152.172 120.46 152.344 119.836 152.344 119.836C152.325 119.231 152.228 118.631 152.056 118.05C151.797 117.314 149.897 108.555 150.358 107.506C150.358 107.506 154.388 106.825 155.915 107.336L155.713 114.138C155.713 114.138 154.992 116.179 155.597 116.719C156.201 117.258 155.626 118.929 155.626 118.929C155.626 118.929 155.54 119.241 156.058 120.29C156.576 121.339 156.058 121.821 156.058 121.821V123.833C156.058 123.833 155.656 125.193 156.115 126.299C156.574 127.404 156.063 129.7 155.861 129.736Z" fill="#3F3D56"/>
<path opacity="0.1" d="M150.227 58.1942C152.469 58.1942 154.286 56.4048 154.286 54.1974C154.286 51.9901 152.469 50.2007 150.227 50.2007C147.985 50.2007 146.168 51.9901 146.168 54.1974C146.168 56.4048 147.985 58.1942 150.227 58.1942Z" fill="#150426"/>
<path d="M150.227 58.0243C152.469 58.0243 154.286 56.2349 154.286 54.0275C154.286 51.8202 152.469 50.0308 150.227 50.0308C147.985 50.0308 146.168 51.8202 146.168 54.0275C146.168 56.2349 147.985 58.0243 150.227 58.0243Z" fill="#FBBEBE"/>
<path opacity="0.1" d="M142.195 96.1174L147.895 93.1411C147.895 93.1411 147.895 93.699 147.885 94.5578C147.052 95.0476 145.796 95.7841 144.589 96.4797C143.933 96.8589 143.292 97.2263 142.743 97.5341C142.615 97.6023 142.482 97.6593 142.344 97.7042C142.268 96.9576 142.195 96.1174 142.195 96.1174Z" fill="#150426"/>
<path opacity="0.1" d="M156.063 93.1342C156.063 93.1342 156.063 95.602 155.992 98.1378H155.972C155.546 98.1527 155.119 98.1397 154.695 98.0987C153.951 98.0205 153.355 97.8266 153.141 97.4422C152.707 96.6939 151.493 95.7415 150.467 95.0322C150.413 93.5798 150.37 92.2668 150.37 92.2668L156.063 93.1342Z" fill="#150426"/>
<path d="M155.003 71.5197C154.858 72.6267 154.83 73.7455 154.92 74.8582C157.538 76.9841 157.049 81.4622 157.049 81.4622C157.049 81.4622 159.065 90.534 158.633 91.3554C158.201 92.1769 159.611 97.223 159.611 97.223C158.41 97.4472 157.193 97.5847 155.972 97.6346C155.546 97.6495 155.119 97.6364 154.695 97.5954C153.951 97.5172 153.355 97.3233 153.141 96.939C152.336 95.5512 148.852 93.4813 148.852 93.4813C148.852 93.4813 146.645 94.7841 144.589 95.9695C143.933 96.3488 143.292 96.7162 142.743 97.024C142.297 97.2568 141.804 97.3898 141.3 97.4135C138.856 97.592 135.601 96.0852 136.119 95.5512C136.753 94.8981 139.891 83.447 139.891 83.447C139.891 83.447 141.473 76.36 142.855 75.3684C143.097 75.1883 143.278 74.9397 143.373 74.6558C143.846 73.3616 143.055 71.2867 143.055 71.2867C143.055 71.2867 138.594 65.8732 138.794 65.5602C138.995 65.2473 138.996 63.5772 138.996 63.5772C138.996 63.5772 139.544 60.941 139.86 59.6655C140.176 58.3899 142.451 58.077 143.112 58.1909C143.774 58.3049 145.27 58.7012 145.902 58.1909C146.534 57.6807 147.601 58.3899 147.601 58.3899L150.223 59.1008L152.581 57.7402C152.581 57.7402 154.944 57.8593 155.146 58.1705C155.348 58.4818 158.457 59.0787 158.457 59.0787C160.039 60.1264 159.982 65.1164 159.982 65.1164C159.982 65.1164 156.182 68.375 155.405 70.0485C155.204 70.5186 155.068 71.0136 155.003 71.5197Z" fill="#5E407C"/>
<path d="M159.122 64.4258L159.986 65.1061L160.879 73.0145L161.77 80.9519C161.77 80.9519 162.115 81.7461 162.404 81.6611C162.692 81.5761 162.663 86.3654 162.663 86.3654C162.663 86.3654 159.357 84.3636 158.172 87.0219L157.25 80.6118C157.25 80.6118 156.068 74.0639 156.098 73.5537C156.127 73.0434 155.493 67.516 155.493 67.516L159.122 64.4258Z" fill="#5E407C"/>
<path d="M139.432 64.7949L138.798 65.5603C138.798 65.5603 138.856 68.8478 138.366 69.642C137.875 70.4363 139.72 75.0844 140.411 74.8004C141.102 74.5164 142.656 67.261 142.656 67.176C142.656 67.0909 139.432 64.7949 139.432 64.7949Z" fill="#5E407C"/>
<path d="M139.375 69.4719C139.375 69.4719 137.359 71.4839 137.502 72.4482C137.646 73.4125 139.575 76.4416 142.339 74.814C142.339 74.814 144.902 70.0672 139.375 69.4719Z" fill="#5E407C"/>
<path opacity="0.1" d="M147.627 129.741C147.125 129.76 144.268 129.741 144.268 129.741C144.226 129.698 144.187 129.652 144.15 129.605C144.881 129.36 146.46 128.993 147.627 129.741Z" fill="#150426"/>
<path opacity="0.1" d="M155.799 129.741C155.296 129.76 152.439 129.741 152.439 129.741C152.398 129.698 152.358 129.652 152.322 129.605C153.049 129.36 154.628 128.993 155.799 129.741Z" fill="#150426"/>
<path opacity="0.1" d="M144.793 79.8872C144.352 84.0472 144.498 92.3026 144.589 95.9694C143.933 96.3487 143.292 96.7161 142.743 97.0239C142.297 97.2567 141.804 97.3897 141.3 97.4134C141.117 96.3045 143.653 84.9146 144.793 79.8872Z" fill="#150426"/>
<path opacity="0.1" d="M145.332 77.5266C145.32 77.5861 145.111 78.4909 144.793 79.8872C144.917 78.695 145.09 77.8395 145.332 77.5266Z" fill="#150426"/>
<path opacity="0.1" d="M152.344 77.0776C152.344 77.0776 154.792 92.2143 147.544 94.0851C147.543 94.0783 152.559 93.3282 152.344 77.0776Z" fill="#150426"/>
<path opacity="0.1" d="M155.972 97.6344C155.546 97.6493 155.119 97.6362 154.695 97.5953L152.74 76.8989C153.987 77.7017 155.479 92.3893 155.972 97.6344Z" fill="#150426"/>
<path opacity="0.1" d="M147.204 51.677C147.334 51.6669 147.464 51.6801 147.589 51.7161C147.773 51.8061 147.938 51.9283 148.076 52.0767C148.302 52.262 148.571 52.3881 148.859 52.4431C149.147 52.4982 149.445 52.4803 149.724 52.3913C149.921 52.3046 150.13 52.2473 150.344 52.2212C150.674 52.2212 150.959 52.4593 151.13 52.7315C151.301 53.0036 151.389 53.3267 151.536 53.6176C151.683 53.9084 151.918 54.1839 152.241 54.2553C152.396 54.2613 152.548 54.2959 152.69 54.3574C152.777 54.4269 152.844 54.5179 152.883 54.621C153.153 55.1941 153.367 55.871 153.942 56.1517C154.154 56.2482 154.384 56.2976 154.617 56.2962C154.855 56.3134 155.092 56.2712 155.308 56.1738C155.521 56.0568 155.697 55.8844 155.816 55.6755C156.175 55.0904 156.217 54.3659 156.132 53.6873C156.027 52.8312 155.717 52.0119 155.229 51.296C154.714 50.5721 154.014 49.9955 153.199 49.6253C152.385 49.2551 151.485 49.1045 150.591 49.1888C150.279 49.2233 149.971 49.2802 149.667 49.3589C148.569 49.648 147.491 50.1889 146.824 51.0954C146.663 51.3216 146.486 51.5365 146.294 51.7382C146.596 51.7093 146.9 51.6838 147.204 51.677Z" fill="#150426"/>
<path d="M147.204 51.5068C147.334 51.4967 147.464 51.5099 147.589 51.546C147.773 51.6359 147.938 51.7581 148.076 51.9065C148.302 52.0919 148.571 52.218 148.859 52.273C149.147 52.328 149.445 52.3102 149.724 52.2212C149.921 52.1345 150.13 52.0771 150.344 52.0511C150.674 52.0511 150.959 52.2892 151.13 52.5613C151.301 52.8334 151.389 53.1566 151.536 53.4474C151.683 53.7382 151.918 54.0137 152.241 54.0852C152.396 54.0911 152.548 54.1257 152.69 54.1872C152.777 54.2568 152.844 54.3477 152.883 54.4508C153.153 55.024 153.367 55.7009 153.942 55.9815C154.154 56.078 154.384 56.1274 154.617 56.1261C154.855 56.1432 155.092 56.1011 155.308 56.0036C155.521 55.8867 155.697 55.7142 155.816 55.5053C156.175 54.9202 156.217 54.1957 156.132 53.5171C156.027 52.6611 155.717 51.8417 155.229 51.1259C154.714 50.4019 154.014 49.8254 153.199 49.4551C152.385 49.0849 151.485 48.9343 150.591 49.0186C150.279 49.0532 149.971 49.11 149.667 49.1887C148.569 49.4779 147.491 50.0187 146.824 50.9252C146.663 51.1515 146.486 51.3663 146.294 51.5681C146.596 51.5392 146.9 51.5136 147.204 51.5068Z" fill="#3F3D56"/>
<path opacity="0.1" d="M142.8 61.0242C142.8 61.0242 143.002 62.6127 142.311 63.0089C141.62 63.4052 142.8 61.0242 142.8 61.0242Z" fill="#150426"/>
<path opacity="0.1" d="M157.452 73.3274C157.452 73.3274 159.093 70.9463 159.324 71.6266C159.556 72.3069 157.452 73.3274 157.452 73.3274Z" fill="#150426"/>
<path opacity="0.1" d="M157.568 74.1201C157.568 74.1201 159.186 72.1642 159.341 72.9296C159.497 73.6949 157.568 74.1201 157.568 74.1201Z" fill="#150426"/>
<path opacity="0.1" d="M152.814 71.7917C152.227 71.7998 151.654 71.6142 151.187 71.2644H151.046C150.561 71.7004 149.925 71.9361 149.268 71.9226C148.927 71.9304 148.588 71.8699 148.271 71.7448C147.954 71.6197 147.666 71.4325 147.425 71.1947H147.237C146.74 71.5935 146.115 71.806 145.474 71.7945C144.833 71.7829 144.216 71.5482 143.734 71.1318L143.059 71.1199C143.059 71.1199 143.85 73.1948 143.377 74.489L154.92 74.6914C154.83 73.5787 154.858 72.4599 155.003 71.3529V71.3376L154.369 71.3257C153.913 71.6371 153.369 71.8 152.814 71.7917Z" fill="#150426"/>
<path opacity="0.1" d="M152.814 72.1318C152.227 72.1399 151.654 71.9543 151.187 71.6045H151.046C150.561 72.0405 149.925 72.2762 149.268 72.2627C148.927 72.2705 148.588 72.21 148.271 72.0849C147.954 71.9598 147.666 71.7726 147.425 71.5348H147.237C146.74 71.9336 146.115 72.1461 145.474 72.1346C144.833 72.123 144.216 71.8883 143.734 71.4719L143.059 71.46C143.059 71.46 143.85 73.5349 143.377 74.8291L154.92 75.0315C154.83 73.9188 154.858 72.8 155.003 71.693V71.6777L154.369 71.6657C153.913 71.9772 153.369 72.1401 152.814 72.1318Z" fill="#150426"/>
<path d="M152.814 71.9618C152.227 71.97 151.654 71.7844 151.187 71.4346H151.046C150.561 71.8706 149.925 72.1062 149.268 72.0928C148.927 72.1006 148.588 72.0401 148.271 71.915C147.954 71.7898 147.666 71.6027 147.425 71.3649H147.237C146.74 71.7637 146.115 71.9762 145.474 71.9646C144.833 71.9531 144.216 71.7183 143.734 71.3019L143.059 71.29C143.059 71.29 143.85 73.3649 143.377 74.6592L154.92 74.8616C154.83 73.7489 154.858 72.6301 155.003 71.523V71.5077L154.369 71.4958C153.913 71.8072 153.369 71.9702 152.814 71.9618Z" fill="#3F3D56"/>
<path opacity="0.1" d="M152.301 60.6211C152.301 60.6211 154.731 60.7742 154.747 61.1143C154.763 61.4545 152.301 60.6211 152.301 60.6211Z" fill="#150426"/>
<path opacity="0.1" d="M146.398 59.1704C146.398 59.1704 143.967 59.3235 143.952 59.6636C143.936 60.0038 146.398 59.1704 146.398 59.1704Z" fill="#150426"/>
<path opacity="0.1" d="M155.685 66.1248C155.661 66.1078 155.637 66.0942 155.612 66.0789C156.234 66.6299 156.131 67.834 155.367 68.8273C154.604 69.8205 153.445 70.2338 152.74 69.7882C152.762 69.8069 152.781 69.8273 152.806 69.846C153.496 70.3664 154.706 69.9583 155.504 68.931C156.302 67.9038 156.379 66.6469 155.685 66.1248Z" fill="#150426"/>
<path opacity="0.1" d="M142.335 68.6998C141.72 67.6079 141.8 66.4021 142.496 65.9446C142.47 65.9565 142.442 65.9667 142.416 65.9803C141.653 66.3987 141.553 67.6521 142.185 68.7814C142.817 69.9107 143.957 70.4822 144.72 70.0706C144.746 70.0563 144.77 70.0404 144.793 70.023C144.031 70.3631 142.95 69.7917 142.335 68.6998Z" fill="#150426"/>
<path opacity="0.1" d="M143.157 59.4919L142.934 59.8321L142.366 59.5344L142.665 59.082C142.863 59.174 143.032 59.3153 143.157 59.4919Z" fill="#150426"/>
<path d="M139.547 72.079C139.547 72.079 140.053 69.7354 139.375 68.9905C138.696 68.2456 138.913 64.3406 139.95 64.4257C140.986 64.5107 142.541 67.5993 142.281 68.2524C142.022 68.9054 141.043 72.2491 141.043 72.2491L139.547 72.079Z" fill="#FBBEBE"/>
<path opacity="0.1" d="M155.799 55.1702C155.679 55.3792 155.504 55.5516 155.291 55.6685C155.075 55.766 154.837 55.8081 154.6 55.791C154.367 55.7923 154.136 55.743 153.925 55.6464C153.35 55.3641 153.135 54.6872 152.866 54.1157C152.832 54.0126 152.771 53.9201 152.69 53.847C152.55 53.7844 152.399 53.748 152.246 53.7399C151.923 53.6684 151.69 53.3912 151.541 53.1021C151.393 52.813 151.305 52.4932 151.135 52.216C150.966 51.9388 150.679 51.6956 150.349 51.7058C150.135 51.7338 149.926 51.794 149.729 51.8844C149.45 51.9727 149.152 51.99 148.864 51.9347C148.576 51.8794 148.307 51.7532 148.082 51.568C147.943 51.4196 147.778 51.2974 147.595 51.2075C147.47 51.1715 147.339 51.1582 147.209 51.1683C147.011 51.1683 146.814 51.1871 146.615 51.2024C146.517 51.3294 146.411 51.4509 146.299 51.5663C146.601 51.5408 146.905 51.5153 147.209 51.5085C147.339 51.4983 147.47 51.5116 147.595 51.5476C147.778 51.6376 147.943 51.7598 148.082 51.9082C148.307 52.0934 148.576 52.2195 148.864 52.2748C149.152 52.3301 149.45 52.3128 149.729 52.2245C149.926 52.1342 150.135 52.074 150.349 52.0459C150.679 52.0459 150.964 52.284 151.135 52.5562C151.306 52.8283 151.394 53.1514 151.541 53.4422C151.688 53.7331 151.923 54.0086 152.246 54.08C152.399 54.0882 152.55 54.1245 152.69 54.1872C152.777 54.2567 152.844 54.3477 152.883 54.4508C153.153 55.0239 153.367 55.7008 153.942 55.9814C154.154 56.078 154.384 56.1274 154.617 56.126C154.855 56.1432 155.092 56.101 155.308 56.0036C155.521 55.8866 155.697 55.7142 155.816 55.5052C156.084 55.0245 156.204 54.4772 156.162 53.9304C156.148 54.3671 156.024 54.7935 155.799 55.1702Z" fill="#150426"/>
<path d="M140.312 73.9379C141.171 73.9379 141.867 73.4735 141.867 72.9005C141.867 72.3275 141.171 71.863 140.312 71.863C139.454 71.863 138.758 72.3275 138.758 72.9005C138.758 73.4735 139.454 73.9379 140.312 73.9379Z" fill="#5E407C"/>
<path d="M89.6421 130.649C119.071 130.649 142.927 107.159 142.927 78.1813C142.927 49.2041 119.071 25.7134 89.6421 25.7134C60.2134 25.7134 36.3567 49.2041 36.3567 78.1813C36.3567 107.159 60.2134 130.649 89.6421 130.649Z" fill="#923DE7"/>
<path d="M117.601 104.548C117.601 112.831 104.377 105.255 90.2 105.255C76.0228 105.255 61.6832 112.518 61.6832 104.235C61.6832 99.5121 66.2535 92.9438 72.8101 88.1732C77.75 84.5779 83.8161 82.0029 89.9098 82.0029C96.1762 82.0029 102.315 84.7905 107.212 88.6171C113.392 93.4421 117.601 99.9254 117.601 104.548Z" fill="#444053"/>
<path d="M107.21 88.6137C99.6739 87.4963 86.0442 86.134 72.8101 88.1698C77.75 84.5744 83.8161 81.9995 89.9098 81.9995C96.1745 81.9995 102.313 84.787 107.21 88.6137Z" fill="#F6F8FB"/>
<path opacity="0.05" d="M61.6832 41.1443C61.6832 41.1443 45.632 51.2484 45.7633 67.0534C45.8945 82.8584 61.6832 41.1443 61.6832 41.1443Z" fill="#150426"/>
<path d="M142.907 12.6074C142.907 12.6074 128.363 11.7451 130.079 21.7795C130.079 21.7795 129.733 23.5517 131.37 24.3578C131.37 24.3578 131.396 23.6146 132.861 23.8663C133.383 23.9523 133.914 23.9774 134.442 23.9412C135.155 23.8934 135.833 23.6175 136.373 23.1554C136.373 23.1554 140.461 21.4938 142.052 14.9136C142.052 14.9136 143.228 13.4782 143.181 13.1108L140.727 14.1415C140.727 14.1415 141.565 15.8847 140.9 17.3338C140.9 17.3338 140.82 14.2061 140.349 14.2724C140.254 14.2877 139.074 14.8762 139.074 14.8762C139.074 14.8762 140.516 17.9137 139.419 20.1196C139.419 20.1196 139.832 16.378 138.615 15.0956L136.887 16.0888C136.887 16.0888 138.573 19.225 137.43 21.7846C137.43 21.7846 137.723 17.8593 136.525 16.3303L134.958 17.5328C134.958 17.5328 136.542 20.6247 135.576 22.7472C135.576 22.7472 135.45 18.1773 134.619 17.8321C134.619 17.8321 133.25 19.0226 133.041 19.5107C133.041 19.5107 134.125 21.754 133.454 22.9377C133.454 22.9377 133.041 19.8934 132.702 19.8764C132.702 19.8764 131.338 21.8935 131.194 23.2779C131.194 23.2779 131.255 21.22 132.371 19.6842C132.371 19.6842 131.051 19.907 130.282 20.7506C130.282 20.7506 130.495 19.3236 132.7 19.1995C132.7 19.1995 133.828 17.6688 134.131 17.577C134.131 17.577 131.928 17.395 130.593 17.9784C130.593 17.9784 131.768 16.6331 134.533 17.2436L136.088 16.0021C136.088 16.0021 133.189 15.6109 131.959 16.0429C131.959 16.0429 133.374 14.8524 136.504 15.7198L138.188 14.7282C138.188 14.7282 135.716 14.2044 134.243 14.3881C134.243 14.3881 135.797 13.5632 138.68 14.4578L139.889 13.9255C139.889 13.9255 138.077 13.5751 137.547 13.5207C137.017 13.4663 136.989 13.32 136.989 13.32C138.14 13.1358 139.32 13.2707 140.397 13.7095C140.397 13.7095 142.95 12.7656 142.907 12.6074Z" fill="#923DE7"/>
<path d="M127.99 8.14641C127.99 8.14641 121.427 7.75524 122.194 12.2894C122.194 12.2894 122.04 13.0905 122.777 13.4544C122.777 13.4544 122.788 13.1143 123.451 13.2333C123.687 13.2715 123.926 13.2829 124.164 13.2673C124.487 13.2447 124.794 13.12 125.038 12.9119C125.038 12.9119 126.885 12.1602 127.603 9.18727C127.603 9.18727 128.135 8.53928 128.122 8.37261L127.013 8.83861C127.013 8.83861 127.393 9.62606 127.094 10.2808C127.094 10.2808 127.058 8.86753 126.845 8.90154C126.802 8.90154 126.268 9.17366 126.268 9.17366C126.268 9.17366 126.921 10.5462 126.429 11.5428C126.429 11.5428 126.615 9.85226 126.066 9.2723L125.285 9.7213C125.285 9.7213 126.047 11.1397 125.531 12.2962C125.531 12.2962 125.662 10.5223 125.121 9.83185L124.413 10.3744C124.413 10.3744 125.128 11.7707 124.693 12.7299C124.693 12.7299 124.636 10.6652 124.259 10.5087C124.259 10.5087 123.641 11.0462 123.546 11.2673C123.546 11.2673 124.037 12.2877 123.733 12.8167C123.733 12.8167 123.546 11.4407 123.387 11.4356C123.387 11.4356 122.771 12.3455 122.707 12.9663C122.736 12.3886 122.919 11.8286 123.237 11.3421C122.882 11.4083 122.554 11.5756 122.294 11.8234C122.294 11.8234 122.389 11.1788 123.389 11.1227C123.389 11.1227 123.898 10.4322 124.035 10.3897C124.035 10.3897 123.04 10.3081 122.437 10.5717C122.437 10.5717 122.967 9.9628 124.218 10.2315L124.909 9.67198C124.909 9.67198 123.6 9.5019 123.043 9.68898C123.043 9.68898 123.683 9.15155 125.097 9.54442L125.857 9.09542C125.857 9.09542 124.741 8.85902 124.075 8.94406C124.075 8.94406 124.778 8.5716 126.08 8.97637L126.624 8.73487C126.624 8.73487 125.805 8.5767 125.567 8.55289C125.329 8.52908 125.313 8.46275 125.313 8.46275C125.832 8.37782 126.364 8.43671 126.85 8.63282C126.85 8.63282 128.009 8.21784 127.99 8.14641Z" fill="#923DE7"/>
<path opacity="0.1" d="M185.349 124.989C187.917 124.989 190 124.643 190 124.215C190 123.788 187.917 123.441 185.349 123.441C182.78 123.441 180.697 123.788 180.697 124.215C180.697 124.643 182.78 124.989 185.349 124.989Z" fill="#923DE7"/>
<path opacity="0.1" d="M8.07828 137.862C10.6472 137.862 12.7297 137.516 12.7297 137.088C12.7297 136.661 10.6472 136.314 8.07828 136.314C5.50935 136.314 3.42682 136.661 3.42682 137.088C3.42682 137.516 5.50935 137.862 8.07828 137.862Z" fill="#923DE7"/>
<path opacity="0.1" d="M35.0803 138.833C37.6492 138.833 39.7318 138.487 39.7318 138.059C39.7318 137.632 37.6492 137.286 35.0803 137.286C32.5114 137.286 30.4288 137.632 30.4288 138.059C30.4288 138.487 32.5114 138.833 35.0803 138.833Z" fill="#923DE7"/>
<path d="M175.168 133.665C179.004 133.665 182.113 133.147 182.113 132.508C182.113 131.869 179.004 131.352 175.168 131.352C171.332 131.352 168.223 131.869 168.223 132.508C168.223 133.147 171.332 133.665 175.168 133.665Z" fill="#923DE7"/>
<path d="M178.039 130.619C178.356 130.364 178.587 130.021 178.702 129.634C178.787 129.244 178.617 128.775 178.239 128.632C177.814 128.472 177.36 128.763 177.016 129.056C176.673 129.348 176.277 129.682 175.826 129.62C176.058 129.414 176.232 129.151 176.33 128.859C176.428 128.566 176.447 128.254 176.386 127.952C176.366 127.827 176.313 127.709 176.23 127.612C175.994 127.363 175.567 127.469 175.284 127.664C174.386 128.287 174.135 129.488 174.13 130.569C174.04 130.18 174.116 129.773 174.115 129.379C174.113 128.984 174.001 128.528 173.659 128.319C173.446 128.208 173.208 128.153 172.968 128.159C172.564 128.144 172.114 128.183 171.838 128.474C171.493 128.836 171.584 129.442 171.883 129.835C172.182 130.228 172.634 130.483 173.051 130.756C173.386 130.953 173.671 131.221 173.887 131.54C173.912 131.586 173.933 131.633 173.949 131.682H176.479C177.045 131.398 177.57 131.041 178.039 130.619Z" fill="#923DE7"/>
<path d="M10.2495 116.358C10.2495 116.358 11.1977 117.579 9.81076 119.419C8.42379 121.259 7.28035 122.821 7.73807 123.97C7.73807 123.97 9.82976 120.545 11.538 120.496C13.2462 120.446 12.1218 118.418 10.2495 116.358Z" fill="#923DE7"/>
<path opacity="0.1" d="M10.2495 116.358C10.3318 116.476 10.3969 116.605 10.4429 116.741C12.1045 118.662 12.9889 120.457 11.3929 120.501C9.904 120.543 8.11113 123.163 7.69141 123.824C7.70608 123.875 7.72337 123.926 7.74322 123.976C7.74322 123.976 9.83491 120.55 11.5432 120.501C13.2514 120.452 12.1218 118.418 10.2495 116.358Z" fill="#150426"/>
<path d="M5.23698 116.358C5.23698 116.358 4.28873 117.579 5.67397 119.419C7.05922 121.259 8.20438 122.821 7.74666 123.97C7.74666 123.97 5.65325 120.545 3.94673 120.496C2.24022 120.446 3.36292 118.418 5.23698 116.358Z" fill="#923DE7"/>
<path opacity="0.1" d="M5.23698 116.358C5.15388 116.475 5.08871 116.604 5.04353 116.741C3.38193 118.662 2.49585 120.457 4.09355 120.501C5.5807 120.543 7.37531 123.163 7.7933 123.824C7.77921 123.875 7.76249 123.926 7.74321 123.976C7.74321 123.976 5.64979 120.55 3.94328 120.501C2.23676 120.452 3.36293 118.418 5.23698 116.358Z" fill="#150426"/>
<path d="M3.77576 123.816C3.77576 123.816 6.4288 123.736 7.23024 123.175C8.03168 122.613 11.3117 121.945 11.5103 122.834C11.709 123.724 15.4968 127.307 12.5018 127.331C9.50674 127.355 5.54272 126.87 4.74474 126.392C3.94675 125.914 3.77576 123.816 3.77576 123.816Z" fill="#A8A8A8"/>
<path opacity="0.2" d="M12.5519 127.027C9.55683 127.05 5.59281 126.566 4.79483 126.088C4.18684 125.724 3.94503 124.416 3.86385 123.812H3.77576C3.77576 123.812 3.94848 125.919 4.74129 126.397C5.53409 126.875 9.50329 127.36 12.4983 127.336C13.3619 127.336 13.6608 127.025 13.6452 126.578C13.5243 126.851 13.1961 127.022 12.5519 127.027Z" fill="#150426"/>
<path d="M70.6977 71.3018C71.7116 71.2457 76.484 70.8919 79.5153 69.1895C80.0021 68.9075 80.5521 68.748 81.1165 68.7252C82.0803 68.698 83.1892 69.0943 82.4793 71.312C81.3289 74.9397 74.6497 79.0215 70.5043 78.7953C66.5178 78.5776 61.7886 76.9959 58.6658 71.4345C58.3666 70.8994 58.2192 70.2949 58.2392 69.6844C58.2754 68.5619 58.69 67.1554 60.83 68.7235C63.7214 70.8409 69.2071 71.2423 70.3074 71.3018C70.4374 71.3087 70.5677 71.3087 70.6977 71.3018Z" fill="#444053"/>
<path d="M109.042 71.3018C110.056 71.2457 114.829 70.8919 117.86 69.1895C118.347 68.9075 118.897 68.748 119.461 68.7252C120.425 68.698 121.534 69.0943 120.824 71.312C119.674 74.9397 112.994 79.0215 108.849 78.7953C104.863 78.5776 100.133 76.9959 97.0105 71.4345C96.7113 70.8994 96.5639 70.2949 96.5839 69.6844C96.6202 68.5619 97.0347 67.1554 99.1747 68.7235C102.066 70.8409 107.552 71.2423 108.652 71.3018C108.782 71.3087 108.912 71.3087 109.042 71.3018Z" fill="#444053"/>
</g>
<defs>
<linearGradient id="paint0_linear_183_1632" x1="154.094" y1="129.748" x2="154.094" y2="45.7243" gradientUnits="userSpaceOnUse">
<stop stop-color="#808080" stop-opacity="0.25"/>
<stop offset="0.54" stop-color="#808080" stop-opacity="0.12"/>
<stop offset="1" stop-color="#808080" stop-opacity="0.1"/>
</linearGradient>
<clipPath id="clip0_183_1632">
<rect width="190" height="138" fill="white" transform="translate(0 0.833252)"/>
</clipPath>
</defs>
</svg>
