<svg width="190" height="191" viewBox="0 0 190 191" fill="none" xmlns="http://www.w3.org/2000/svg">
<g clip-path="url(#clip0_92_878)">
<path d="M121 41.9906H68.4593C67.262 41.992 66.1141 42.4568 65.2675 43.2831C64.4209 44.1094 63.9446 45.2297 63.9431 46.3982V160.366L63.341 160.545L50.4519 164.398C49.841 164.579 49.1813 164.517 48.6174 164.225C48.0535 163.932 47.6316 163.433 47.4442 162.837L9.1051 40.6124C8.91852 40.0162 8.98211 39.3721 9.2819 38.8217C9.58168 38.2713 10.0931 37.8595 10.7038 37.6769L30.5659 31.7412L88.1467 14.5395L108.009 8.60386C108.311 8.51307 108.629 8.48134 108.943 8.5105C109.258 8.53965 109.564 8.62912 109.843 8.77377C110.123 8.91843 110.37 9.11543 110.571 9.35351C110.773 9.59159 110.924 9.86607 111.016 10.1612L120.816 41.4029L121 41.9906Z" fill="#F4E9FF"/>
<path d="M131.792 42.6292L120.282 4.1167C120.091 3.47501 119.778 2.87827 119.361 2.36056C118.945 1.84286 118.432 1.41434 117.854 1.0995C117.276 0.784664 116.642 0.589668 115.99 0.525666C115.338 0.461665 114.68 0.529911 114.054 0.726498L86.8436 9.25912L30.7388 26.8563L3.52826 35.392C2.2642 35.7896 1.20579 36.6848 0.585344 37.8811C-0.0351026 39.0774 -0.166894 40.4769 0.218903 41.7727L39.5546 173.393C39.868 174.439 40.5004 175.354 41.3589 176.005C42.2175 176.655 43.257 177.007 44.3249 177.008C44.8192 177.008 45.3107 176.932 45.7829 176.783L64.4357 170.934L65.0225 170.748V170.12L64.4357 170.303L45.6099 176.209C44.4941 176.557 43.289 176.438 42.2589 175.877C41.2288 175.317 40.4578 174.361 40.115 173.218L0.782303 41.5953C0.612465 41.0294 0.553272 40.4346 0.608111 39.8452C0.662951 39.2558 0.83074 38.6832 1.10188 38.1603C1.37303 37.6374 1.7422 37.1744 2.18824 36.7979C2.63429 36.4214 3.14845 36.1387 3.70129 35.966L30.9118 27.4304L87.0168 9.83618L114.227 1.30055C114.647 1.16945 115.083 1.10261 115.521 1.10219C116.462 1.10435 117.377 1.41511 118.133 1.98894C118.889 2.56277 119.446 3.36952 119.722 4.29103L131.178 42.6292L131.36 43.2303H131.971L131.792 42.6292Z" fill="#3F3D56"/>
<path d="M35.9915 38.9166C35.426 38.9162 34.8756 38.7301 34.4209 38.3857C33.9662 38.0414 33.6313 37.5568 33.4651 37.0031L29.6864 24.3584C29.5848 24.0187 29.5496 23.6619 29.5827 23.3083C29.6157 22.9547 29.7165 22.6112 29.8792 22.2975C30.0419 21.9838 30.2633 21.706 30.5308 21.4799C30.7982 21.2539 31.1066 21.0841 31.4382 20.9801L83.0542 4.79135C83.7238 4.58203 84.4471 4.65342 85.0653 4.98986C85.6836 5.32629 86.1463 5.90028 86.3519 6.58585L90.1307 19.2307C90.3349 19.9166 90.2651 20.6576 89.9368 21.2909C89.6084 21.9243 89.0482 22.3983 88.3791 22.6091L36.7629 38.7978C36.5129 38.8764 36.2529 38.9165 35.9915 38.9166Z" fill="#923DE7"/>
<path d="M55.7862 14.0111C59.0267 14.0111 61.6537 11.3199 61.6537 8.00014C61.6537 4.68035 59.0267 1.98914 55.7862 1.98914C52.5457 1.98914 49.9187 4.68035 49.9187 8.00014C49.9187 11.3199 52.5457 14.0111 55.7862 14.0111Z" fill="#923DE7"/>
<path d="M55.7862 11.8065C57.8382 11.8065 59.5017 10.1023 59.5017 8.00014C59.5017 5.89795 57.8382 4.19379 55.7862 4.19379C53.7342 4.19379 52.0707 5.89795 52.0707 8.00014C52.0707 10.1023 53.7342 11.8065 55.7862 11.8065Z" fill="white"/>
<path d="M176.51 179.5H77.4901C76.8299 179.499 76.197 179.221 75.7302 178.726C75.2633 178.232 75.0008 177.561 75 176.861V51.1386C75.0007 50.4391 75.2633 49.7684 75.7302 49.2737C76.197 48.779 76.8299 48.5008 77.4901 48.5H176.51C177.17 48.5008 177.803 48.7791 178.27 49.2737C178.737 49.7684 178.999 50.4391 179 51.1386V176.861C178.999 177.561 178.737 178.232 178.27 178.726C177.803 179.221 177.17 179.499 176.51 179.5Z" fill="#F4E9FF"/>
<path d="M131.178 42.6293H69.423C68.1009 42.6312 66.8334 43.1701 65.8985 44.1279C64.9636 45.0857 64.4375 46.3841 64.4357 47.7386V170.303L65.0224 170.12V47.7386C65.0238 46.5434 65.4879 45.3976 66.3129 44.5524C67.1379 43.7073 68.2564 43.2318 69.423 43.2304H131.36L131.178 42.6293ZM185.013 42.6293H69.423C68.1009 42.6312 66.8334 43.1701 65.8985 44.1279C64.9636 45.0857 64.4375 46.3841 64.4357 47.7386V185.391C64.4375 186.745 64.9636 188.044 65.8985 189.001C66.8334 189.959 68.1009 190.498 69.423 190.5H185.013C186.335 190.498 187.602 189.959 188.537 189.001C189.472 188.044 189.998 186.745 190 185.391V47.7386C189.998 46.3841 189.472 45.0857 188.537 44.1279C187.602 43.1701 186.335 42.6312 185.013 42.6293ZM189.413 185.391C189.412 186.586 188.948 187.732 188.123 188.577C187.298 189.422 186.179 189.897 185.013 189.899H69.423C68.2564 189.897 67.1379 189.422 66.3129 188.577C65.4879 187.732 65.0238 186.586 65.0224 185.391V47.7386C65.0238 46.5434 65.4879 45.3976 66.3129 44.5524C67.1379 43.7073 68.2564 43.2318 69.423 43.2304H185.013C186.179 43.2318 187.298 43.7073 188.123 44.5524C188.948 45.3976 189.412 46.5434 189.413 47.7386V185.391Z" fill="#3F3D56"/>
<path d="M154.208 55.8535H100.227C99.5274 55.8527 98.8563 55.5674 98.3613 55.0603C97.8663 54.5532 97.5879 53.8657 97.5871 53.1485V39.9243C97.5879 39.2072 97.8663 38.5196 98.3613 38.0125C98.8563 37.5054 99.5274 37.2202 100.227 37.2194H154.208C154.908 37.2202 155.58 37.5054 156.075 38.0125C156.57 38.5196 156.848 39.2072 156.849 39.9243V53.1485C156.848 53.8657 156.57 54.5532 156.075 55.0603C155.58 55.5674 154.908 55.8527 154.208 55.8535Z" fill="#923DE7"/>
<path d="M127.218 38.121C130.458 38.121 133.085 35.4298 133.085 32.11C133.085 28.7902 130.458 26.099 127.218 26.099C123.977 26.099 121.35 28.7902 121.35 32.11C121.35 35.4298 123.977 38.121 127.218 38.121Z" fill="#923DE7"/>
<path d="M127.218 35.7713C129.192 35.7713 130.792 34.1321 130.792 32.11C130.792 30.0879 129.192 28.4487 127.218 28.4487C125.244 28.4487 123.644 30.0879 123.644 32.11C123.644 34.1321 125.244 35.7713 127.218 35.7713Z" fill="white"/>
</g>
<defs>
<clipPath id="clip0_92_878">
<rect width="190" height="190" fill="white" transform="translate(0 0.5)"/>
</clipPath>
</defs>
</svg>
