<svg width="190" height="178" viewBox="0 0 190 178" fill="none" xmlns="http://www.w3.org/2000/svg">
<g clip-path="url(#clip0_92_991)">
<path d="M175.637 135.91L184.16 137.237C187.045 133.757 189.034 129.629 189.954 125.21C183.722 130.292 174.244 127.592 166.686 130.366C164.336 131.249 162.215 132.648 160.481 134.458C158.747 136.269 157.444 138.445 156.67 140.825L152.504 145.289C156.275 146.776 160.324 147.431 164.374 147.209C168.423 146.987 172.376 145.893 175.96 144.003C177.96 142.923 179.815 141.596 181.482 140.054C178.5 138.183 175.637 135.91 175.637 135.91Z" fill="#F2F2F2"/>
<path d="M172.611 122.332L180.834 119.734C181.858 115.338 181.79 110.759 180.635 106.396C177.332 113.712 167.639 115.506 162.117 121.346C160.409 123.18 159.137 125.374 158.396 127.765C157.655 130.156 157.463 132.682 157.835 135.157L156.106 141.003C160.146 140.658 164.064 139.446 167.589 137.448C171.114 135.451 174.162 132.716 176.523 129.432C177.83 127.577 178.897 125.565 179.698 123.444C176.192 123.095 172.611 122.332 172.611 122.332Z" fill="#F2F2F2"/>
<path d="M190 147.993C190 148.037 189.992 148.08 189.975 148.121C189.958 148.161 189.933 148.198 189.902 148.229C189.871 148.26 189.834 148.285 189.794 148.301C189.753 148.318 189.709 148.327 189.665 148.327H0.334631C0.245882 148.327 0.160766 148.291 0.0980106 148.229C0.0352552 148.166 0 148.082 0 147.993C0 147.905 0.0352552 147.82 0.0980106 147.758C0.160766 147.695 0.245882 147.66 0.334631 147.66H189.665C189.709 147.66 189.753 147.668 189.794 147.685C189.834 147.702 189.871 147.726 189.902 147.757C189.933 147.788 189.958 147.825 189.975 147.866C189.992 147.906 190 147.949 190 147.993Z" fill="#CCCCCC"/>
<path d="M78.4548 133.784C111.845 133.784 138.913 106.823 138.913 73.5651C138.913 40.3073 111.845 13.3464 78.4548 13.3464C45.0645 13.3464 17.9963 40.3073 17.9963 73.5651C17.9963 106.823 45.0645 133.784 78.4548 133.784Z" fill="#E6E6E6"/>
<path d="M130.477 73.5651C130.483 81.6503 128.587 89.6244 124.941 96.848C121.294 104.072 115.999 110.343 109.48 115.161C109.044 115.486 108.6 115.802 108.153 116.11C99.4348 122.146 89.0719 125.381 78.4548 125.381C67.8378 125.381 57.4748 122.146 48.757 116.11C48.3099 115.802 47.8656 115.486 47.4298 115.161C40.915 110.339 35.6231 104.066 31.9772 96.8438C28.3313 89.6212 26.4324 81.6492 26.4324 73.5651C26.4324 65.4809 28.3313 57.5089 31.9772 50.2863C35.6231 43.0637 40.915 36.7909 47.4298 31.9694C47.8656 31.6445 48.3099 31.328 48.757 31.0199C57.4748 24.9841 67.8378 21.749 78.4548 21.749C89.0719 21.749 99.4348 24.9841 108.153 31.0199C108.6 31.328 109.044 31.6445 109.48 31.9694C115.999 36.7867 121.294 43.0586 124.941 50.2822C128.587 57.5057 130.483 65.4799 130.477 73.5651Z" fill="white"/>
<path d="M78.4548 120.9C104.701 120.9 125.978 99.7074 125.978 73.5651C125.978 47.4229 104.701 26.2305 78.4548 26.2305C52.2085 26.2305 30.9316 47.4229 30.9316 73.5651C30.9316 99.7074 52.2085 120.9 78.4548 120.9Z" fill="#F4E9FF"/>
<path opacity="0.2" d="M78.5788 26.3628C77.8583 26.3628 77.1424 26.3816 76.4298 26.4132C88.441 27.4644 99.6019 33.0241 107.651 41.9656C115.701 50.9072 120.037 62.5621 119.781 74.5691C119.525 86.576 114.696 98.0372 106.273 106.631C97.8502 115.224 86.4625 120.307 74.4174 120.849C75.789 120.968 77.1763 121.032 78.5788 121.032C91.1827 121.032 103.27 116.045 112.183 107.168C121.095 98.2912 126.102 86.2514 126.102 73.6975C126.102 61.1435 121.095 49.1038 112.183 40.2268C103.27 31.3498 91.1827 26.3628 78.5788 26.3628Z" fill="black"/>
<path d="M78.5954 22.8694C78.1855 22.8701 77.7925 23.0326 77.5026 23.3214C77.2127 23.6101 77.0495 24.0015 77.0488 24.4099V31.1319C77.0488 31.5405 77.2118 31.9323 77.5018 32.2212C77.7919 32.5101 78.1853 32.6724 78.5954 32.6724C79.0056 32.6724 79.399 32.5101 79.6891 32.2212C79.9791 31.9323 80.1421 31.5405 80.1421 31.1319V24.4099C80.1413 24.0015 79.9781 23.6101 79.6883 23.3214C79.3984 23.0326 79.0054 22.8701 78.5954 22.8694Z" fill="white"/>
<path d="M109.48 31.9694C109.044 31.6445 108.6 31.328 108.153 31.0199C107.884 31.0024 107.616 31.055 107.374 31.1724C107.133 31.2898 106.926 31.468 106.775 31.6893L102.976 37.2434C102.745 37.581 102.658 37.9961 102.735 38.3974C102.811 38.7987 103.044 39.1533 103.383 39.3833C103.722 39.6132 104.139 39.6995 104.542 39.6234C104.945 39.5472 105.301 39.3147 105.532 38.9771L109.331 33.423C109.475 33.2123 109.565 32.9689 109.591 32.715C109.617 32.4612 109.579 32.2048 109.48 31.9694Z" fill="white"/>
<path d="M126.74 57.2949C126.664 57.1076 126.551 56.9372 126.408 56.7933C126.266 56.6494 126.096 56.5349 125.909 56.4564C125.722 56.3778 125.522 56.3367 125.319 56.3355C125.116 56.3342 124.915 56.3728 124.727 56.449L118.473 58.9782C118.093 59.1322 117.79 59.43 117.631 59.8062C117.472 60.1824 117.469 60.6062 117.623 60.9845C117.778 61.3627 118.076 61.6645 118.454 61.8235C118.832 61.9824 119.257 61.9856 119.637 61.8323L125.891 59.3031C126.27 59.1483 126.573 58.85 126.732 58.4737C126.891 58.0973 126.894 57.6734 126.74 57.2949Z" fill="white"/>
<path d="M53.934 37.2434L50.1349 31.6893C49.9835 31.468 49.7768 31.2898 49.5352 31.1724C49.2935 31.055 49.0253 31.0024 48.757 31.0199C48.3099 31.328 47.8656 31.6445 47.4298 31.9694C47.331 32.2048 47.2928 32.4612 47.3189 32.715C47.3449 32.9689 47.4343 33.2123 47.5788 33.423L51.3778 38.9771C51.6087 39.3147 51.9647 39.5472 52.3676 39.6234C52.7705 39.6995 53.1873 39.6132 53.5262 39.3833C53.8652 39.1533 54.0986 38.7987 54.175 38.3974C54.2515 37.9961 54.1648 37.581 53.934 37.2434Z" fill="white"/>
<path d="M38.4369 58.9782L32.183 56.449C31.803 56.2953 31.3773 56.2982 30.9995 56.4572C30.6217 56.6161 30.3228 56.9179 30.1684 57.2963C30.0141 57.6748 30.0169 58.0988 30.1764 58.4751C30.3359 58.8514 30.6389 59.1492 31.0188 59.3031L37.2727 61.8322C37.6526 61.9856 38.0781 61.9824 38.4556 61.8234C38.8332 61.6645 39.1319 61.3627 39.2862 60.9844C39.4405 60.6062 39.4377 60.1824 39.2785 59.8062C39.1192 59.43 38.8165 59.1322 38.4369 58.9782Z" fill="white"/>
<path d="M78.5954 114.458C78.1855 114.458 77.7925 114.621 77.5026 114.91C77.2127 115.198 77.0495 115.59 77.0488 115.998V122.72C77.0488 123.129 77.2118 123.521 77.5018 123.81C77.7919 124.099 78.1853 124.261 78.5954 124.261C79.0056 124.261 79.399 124.099 79.6891 123.81C79.9791 123.521 80.1421 123.129 80.1421 122.72V115.998C80.1413 115.59 79.9781 115.198 79.6883 114.91C79.3984 114.621 79.0054 114.458 78.5954 114.458Z" fill="white"/>
<path d="M109.331 113.707L105.532 108.153C105.417 107.986 105.271 107.843 105.101 107.732C104.932 107.621 104.742 107.544 104.542 107.507C104.343 107.469 104.138 107.471 103.939 107.512C103.74 107.553 103.551 107.633 103.383 107.747C103.216 107.861 103.072 108.006 102.961 108.176C102.849 108.345 102.772 108.534 102.735 108.733C102.697 108.931 102.699 109.136 102.74 109.334C102.781 109.532 102.861 109.72 102.976 109.887L106.775 115.441C106.926 115.662 107.133 115.84 107.374 115.958C107.616 116.075 107.884 116.128 108.153 116.11C108.6 115.802 109.044 115.486 109.48 115.161C109.579 114.925 109.617 114.669 109.591 114.415C109.565 114.161 109.475 113.918 109.331 113.707Z" fill="white"/>
<path d="M125.891 87.8272L119.637 85.298C119.257 85.1443 118.831 85.1472 118.453 85.3062C118.076 85.4651 117.777 85.7669 117.622 86.1453C117.468 86.5238 117.471 86.9478 117.63 87.3241C117.79 87.7004 118.093 87.9982 118.473 88.1521L124.727 90.6812C125.107 90.8346 125.532 90.8314 125.91 90.6724C126.287 90.5135 126.586 90.2117 126.74 89.8334C126.894 89.4552 126.892 89.0314 126.732 88.6552C126.573 88.279 126.27 87.9812 125.891 87.8272Z" fill="white"/>
<path d="M53.5262 107.747C53.1872 107.517 52.7705 107.431 52.3676 107.507C51.9647 107.583 51.6087 107.815 51.3778 108.153L47.5788 113.707C47.4343 113.918 47.3449 114.161 47.3189 114.415C47.2928 114.669 47.331 114.925 47.4298 115.161C47.8656 115.486 48.3099 115.802 48.757 116.11C49.0253 116.128 49.2935 116.075 49.5352 115.958C49.7768 115.84 49.9835 115.662 50.1349 115.441L53.934 109.887C54.0483 109.72 54.1284 109.532 54.1698 109.334C54.2111 109.136 54.2129 108.931 54.1751 108.733C54.1372 108.534 54.0604 108.345 53.9491 108.175C53.8378 108.006 53.6941 107.861 53.5262 107.747Z" fill="white"/>
<path d="M39.2861 86.1437C39.2098 85.9565 39.0971 85.786 38.9545 85.6422C38.812 85.4983 38.6424 85.3838 38.4554 85.3053C38.2684 85.2267 38.0677 85.1856 37.8648 85.1844C37.6619 85.1831 37.4607 85.2217 37.2727 85.2979L31.0188 87.8271C30.6392 87.9811 30.3365 88.2789 30.1772 88.6551C30.018 89.0313 30.0152 89.4551 30.1695 89.8333C30.3237 90.2116 30.6225 90.5134 31 90.6723C31.3776 90.8313 31.8031 90.8345 32.183 90.6811L38.4369 88.152C38.8163 87.9972 39.1187 87.6989 39.2779 87.3225C39.4371 86.9461 39.44 86.5223 39.2861 86.1437Z" fill="white"/>
<path d="M80.6022 72.8007C80.745 73.6427 80.5466 74.5068 80.0506 75.2033C79.5546 75.8999 78.8015 76.372 77.9564 76.5162L50.5116 81.166C50.0929 81.2369 49.6643 81.225 49.2503 81.131C48.8363 81.0369 48.4449 80.8626 48.0985 80.6179C47.7521 80.3732 47.4575 80.0629 47.2315 79.7048C47.0055 79.3467 46.8525 78.9477 46.7813 78.5307C46.71 78.1137 46.722 77.6869 46.8164 77.2745C46.9108 76.8621 47.0859 76.4722 47.3316 76.1272C47.5772 75.7822 47.8888 75.4887 48.2483 75.2636C48.6078 75.0385 49.0084 74.8862 49.427 74.8152L76.8718 70.1654C77.7172 70.0232 78.5848 70.2207 79.2841 70.7148C79.9834 71.2088 80.4574 71.959 80.6022 72.8007Z" fill="#3F3D56"/>
<path d="M109.487 103.087C109.093 103.482 108.557 103.705 107.998 103.707C107.439 103.709 106.902 103.49 106.505 103.098L76.9605 73.9025C76.5641 73.51 76.3403 72.9768 76.3383 72.42C76.3364 71.8632 76.5565 71.3284 76.9502 70.9331C77.3439 70.5379 77.8791 70.3145 78.4381 70.312C78.9971 70.3096 79.5342 70.5283 79.9314 70.9201L109.475 100.116C109.872 100.509 110.096 101.042 110.098 101.599C110.1 102.156 109.88 102.691 109.487 103.087Z" fill="#3F3D56"/>
<path d="M78.4548 77.2062C80.4738 77.2062 82.1105 75.576 82.1105 73.5651C82.1105 71.5541 80.4738 69.924 78.4548 69.924C76.4359 69.924 74.7992 71.5541 74.7992 73.5651C74.7992 75.576 76.4359 77.2062 78.4548 77.2062Z" fill="#CCCCCC"/>
<path d="M53.2749 10.4276C47.6635 19.2146 39.1019 25.0461 28.5432 28.877C28.3345 29.0327 28.0972 29.1459 27.8446 29.2101C27.5921 29.2744 27.3293 29.2885 27.0712 29.2516C26.8132 29.2147 26.565 29.1276 26.3408 28.9951C26.1166 28.8627 25.9207 28.6876 25.7645 28.4798C20.0291 20.8523 21.3241 9.95114 28.8936 4.12288C30.7237 2.71625 32.816 1.68572 35.0492 1.0911C37.2823 0.496482 39.6119 0.349625 41.9025 0.659059C44.1931 0.968493 46.3992 1.72805 48.3927 2.89364C50.3862 4.05922 52.1273 5.60762 53.5151 7.44894L53.6737 7.6599C53.83 7.86772 53.9436 8.10415 54.0082 8.35571C54.0727 8.60727 54.0868 8.86902 54.0498 9.12603C54.0128 9.38303 53.9253 9.63025 53.7923 9.85358C53.6593 10.0769 53.4835 10.2719 53.2749 10.4276Z" fill="#E6E6E6"/>
<path d="M103.395 7.44893C104.782 5.60762 106.524 4.05922 108.517 2.89363C110.51 1.72805 112.717 0.968494 115.007 0.65906C117.298 0.349626 119.627 0.496479 121.86 1.0911C124.094 1.68571 126.186 2.71625 128.016 4.12288C135.586 9.95114 136.881 20.8523 131.145 28.4798C130.989 28.6876 130.793 28.8627 130.569 28.9951C130.345 29.1276 130.096 29.2147 129.838 29.2516C129.58 29.2885 129.318 29.2744 129.065 29.2101C128.812 29.1459 128.575 29.0327 128.366 28.877C118.565 25.1392 110.526 18.6708 103.635 10.4276C103.213 10.1132 102.935 9.64506 102.86 9.12601C102.785 8.60697 102.92 8.0796 103.236 7.65989L103.395 7.44893Z" fill="#E6E6E6"/>
<path d="M100.935 125.736C100.578 125.936 100.314 126.269 100.203 126.662C100.092 127.055 100.141 127.476 100.341 127.833L109.267 143.72C109.467 144.077 109.801 144.339 110.196 144.45C110.591 144.561 111.013 144.511 111.371 144.312C111.729 144.112 111.993 143.78 112.104 143.386C112.216 142.993 112.166 142.572 111.966 142.216L103.04 126.328C102.839 125.972 102.505 125.71 102.11 125.599C101.716 125.488 101.293 125.538 100.935 125.736Z" fill="#E6E6E6"/>
<path d="M53.8697 126.328L44.9438 142.216C44.7436 142.572 44.6938 142.993 44.8053 143.386C44.9168 143.78 45.1805 144.112 45.5384 144.312C45.8963 144.511 46.3191 144.561 46.7138 144.45C47.1085 144.339 47.4427 144.077 47.6431 143.72L56.569 127.833C56.6682 127.656 56.7316 127.462 56.7554 127.261C56.7793 127.06 56.7632 126.857 56.708 126.662C56.6528 126.467 56.5596 126.285 56.4338 126.126C56.308 125.968 56.1521 125.835 55.9748 125.736C55.7975 125.637 55.6024 125.574 55.4007 125.551C55.199 125.527 54.9945 125.543 54.799 125.598C54.6036 125.653 54.4209 125.746 54.2614 125.871C54.102 125.996 53.9688 126.152 53.8697 126.328Z" fill="#E6E6E6"/>
<path d="M111.074 147.788C113.714 147.788 115.855 145.656 115.855 143.027C115.855 140.397 113.714 138.265 111.074 138.265C108.434 138.265 106.294 140.397 106.294 143.027C106.294 145.656 108.434 147.788 111.074 147.788Z" fill="#E6E6E6"/>
<path d="M114.449 25.9503C117.089 25.9503 119.229 23.8185 119.229 21.1888C119.229 18.5592 117.089 16.4274 114.449 16.4274C111.809 16.4274 109.668 18.5592 109.668 21.1888C109.668 23.8185 111.809 25.9503 114.449 25.9503Z" fill="#E6E6E6"/>
<path d="M78.1736 14.7468C80.8138 14.7468 82.9541 12.615 82.9541 9.98535C82.9541 7.35566 80.8138 5.22388 78.1736 5.22388C75.5335 5.22388 73.3932 7.35566 73.3932 9.98535C73.3932 12.615 75.5335 14.7468 78.1736 14.7468Z" fill="#E6E6E6"/>
<path d="M43.5857 25.3901C46.2259 25.3901 48.3662 23.2584 48.3662 20.6287C48.3662 17.999 46.2259 15.8672 43.5857 15.8672C40.9456 15.8672 38.8053 17.999 38.8053 20.6287C38.8053 23.2584 40.9456 25.3901 43.5857 25.3901Z" fill="#E6E6E6"/>
<path d="M46.6789 147.788C49.3191 147.788 51.4594 145.656 51.4594 143.027C51.4594 140.397 49.3191 138.265 46.6789 138.265C44.0388 138.265 41.8985 140.397 41.8985 143.027C41.8985 145.656 44.0388 147.788 46.6789 147.788Z" fill="#E6E6E6"/>
<path d="M107.325 100.409C107.513 100.703 107.764 100.952 108.059 101.139C108.355 101.326 108.688 101.446 109.035 101.491C109.382 101.535 109.735 101.504 110.069 101.398C110.403 101.292 110.709 101.115 110.966 100.879L118.467 104.882L118.065 100.495L111.004 97.3662C110.576 96.9619 110.015 96.7277 109.426 96.7081C108.837 96.6885 108.261 96.8849 107.807 97.2599C107.354 97.635 107.054 98.1627 106.965 98.743C106.876 99.3234 107.004 99.9161 107.325 100.409Z" fill="#FFB7B7"/>
<path d="M112.79 101.94L115.73 97.8982L129.891 104.566L147.513 101.273C148.384 101.11 149.28 101.14 150.138 101.361C150.996 101.582 151.795 101.989 152.478 102.552C153.16 103.115 153.71 103.821 154.088 104.619C154.466 105.418 154.662 106.289 154.664 107.172C154.665 108.766 154.031 110.296 152.902 111.426C151.772 112.555 150.238 113.192 148.638 113.197L128.443 113.234L112.79 101.94Z" fill="#AB76E0"/>
<path d="M108.263 171.745L105.288 170.328L109.374 157.946L113.763 160.037L108.263 171.745Z" fill="#FFB7B7"/>
<path d="M128.202 169.749C127.985 169.884 127.769 170.016 127.551 170.149C127.116 170.414 126.677 170.676 126.238 170.932C126.017 171.061 125.794 171.189 125.573 171.315V171.322L125.56 171.324L125.556 171.326L125.22 171.409L124.737 170.138L124.514 169.553L124.199 168.724L123.623 167.207L120.586 159.222L125.307 158.062L125.484 158.782H125.486L125.573 159.139L127.223 165.802L127.559 167.164L127.57 167.205L127.773 168.019L127.948 168.724L128.143 169.512L128.202 169.749Z" fill="#FFB7B7"/>
<path d="M156.364 141.705C156.064 142.184 155.758 142.66 155.45 143.132C154.878 144.011 154.29 144.877 153.687 145.73C153.687 145.733 153.685 145.733 153.683 145.735C153.331 146.059 152.943 146.342 152.525 146.577C152.508 146.59 152.488 146.599 152.471 146.609C152.163 146.779 151.836 146.91 151.496 146.999C151.374 147.029 151.249 147.06 151.127 147.09C150.686 147.195 150.249 147.284 149.814 147.362C149.041 147.499 148.276 147.597 147.516 147.658C147.455 147.665 147.394 147.669 147.332 147.674C144.206 147.902 141.163 147.534 137.987 146.932C136.418 146.636 134.817 146.281 133.159 145.913C132.617 145.791 132.073 145.672 131.523 145.552C131.481 145.543 131.437 145.532 131.394 145.524C130.607 145.352 129.808 145.182 128.988 145.015C127.957 144.803 126.893 144.599 125.788 144.405L125.867 145.957C125.932 147.15 126.181 148.327 126.605 149.445C127.077 150.82 127.451 151.908 126.662 154.173L126.282 155.27C126.479 155.814 126.546 156.397 126.479 156.972C126.412 157.547 126.212 158.099 125.895 158.584L125.819 158.699L128.988 166.687L129.194 167.205H127.571L125.574 167.207H122.19L117.307 157.45L117.074 156.984V156.96L117.578 138.21C117.585 138.045 117.598 137.878 117.62 137.712C117.709 136.96 117.947 136.234 118.321 135.575C118.695 134.916 119.197 134.338 119.798 133.874C120.374 133.426 121.033 133.096 121.738 132.904C122.442 132.712 123.178 132.662 123.903 132.755L125.574 132.971L128.988 133.41L131.394 133.722L131.442 133.728L138.535 134.642L139.044 132.575L139.138 132.54L142.124 131.45L152.453 127.679L152.479 127.67L153.159 127.422L153.24 127.553C153.264 127.592 153.288 127.631 153.309 127.67C153.981 128.869 154.528 130.134 154.941 131.443C155.637 133.583 156.209 135.76 156.656 137.965C156.676 138.06 156.693 138.147 156.709 138.226L156.715 138.25C156.722 138.287 156.726 138.311 156.728 138.317C156.966 139.305 156.8 140.51 156.364 141.705Z" fill="#2F2E41"/>
<path d="M156.799 134.795C156.767 134.656 156.725 134.514 156.682 134.377C156.335 133.339 155.931 132.321 155.471 131.327C154.956 130.195 154.337 128.983 153.601 127.671C153.245 127.036 152.862 126.375 152.452 125.689C152.247 125.345 152.033 124.995 151.812 124.638C151.803 124.621 151.794 124.605 151.784 124.59L151.72 124.486L141.501 125.848L137.695 126.355L137.468 128.243L137.413 128.711C137.411 128.711 137.411 128.711 137.413 128.713L137.261 129.989V129.991L137.057 131.675L137.04 131.673L131.393 130.944L125.573 130.193L122.447 129.791C121.722 129.696 120.986 129.747 120.282 129.939C119.577 130.131 118.918 130.461 118.342 130.909C117.741 131.373 117.24 131.951 116.866 132.61C116.492 133.269 116.253 133.996 116.164 134.747C116.144 134.9 116.131 135.056 116.125 135.211L113.175 142.171C111.411 146.334 110.287 150.739 109.842 155.236L107.679 162.122L107.987 162.151L112.57 162.575L113.781 162.688L116.446 158.813C116.749 158.371 117.038 157.916 117.307 157.451C117.749 156.69 118.142 155.902 118.484 155.092L124.249 141.427C124.695 141.504 125.136 141.576 125.573 141.645C127.594 141.971 129.534 142.237 131.393 142.443C137.438 143.116 142.672 143.168 147.331 142.598C148.64 142.439 149.905 142.23 151.126 141.971C151.574 141.878 152.016 141.777 152.452 141.669C152.555 141.645 152.655 141.621 152.756 141.595C153.659 141.363 154.489 140.909 155.17 140.275C155.851 139.641 156.362 138.847 156.655 137.965C157.006 136.944 157.056 135.844 156.799 134.795Z" fill="#2F2E41"/>
<path d="M109.213 169.723L105.995 168.187L105.49 167.945L104.684 169.917L99.0565 171.15C98.7783 171.211 98.5268 171.359 98.3389 171.572C98.151 171.785 98.0365 172.053 98.0121 172.336C97.9876 172.618 98.0546 172.901 98.2032 173.143C98.3519 173.385 98.5743 173.574 98.838 173.681L104.337 175.916L106.082 174.351L105.654 176.451L107.725 177.293L109.995 170.097L109.213 169.723Z" fill="#2F2E41"/>
<path d="M128.988 166.687L129.194 167.205H128.988V166.687Z" fill="#2F2E41"/>
<path d="M127.868 167.315L124.496 168.479L123.967 168.661L124.787 170.627L121.659 175.447C121.505 175.685 121.43 175.967 121.447 176.25C121.465 176.533 121.572 176.803 121.755 177.021C121.937 177.239 122.184 177.394 122.461 177.461C122.738 177.529 123.029 177.507 123.292 177.398L128.778 175.133L128.913 172.798L130.092 174.59L132.158 173.737L128.688 167.033L127.868 167.315Z" fill="#2F2E41"/>
<path d="M155.959 137.948C155.758 137.947 155.561 137.899 155.384 137.806L137.591 128.545L137.386 127.707L136.998 125.054L137.004 125.029L138.696 117.259C138.665 117.192 138.6 117.083 138.527 116.959C137.771 115.684 135.472 111.804 139.86 106.461L147.564 97.5153L154.175 97.2319L154.251 97.3266C156.019 99.5368 157.211 102.148 157.722 104.928C158.232 107.707 158.046 110.57 157.178 113.26L156.49 125.645L157.228 128.146C157.66 129.616 157.588 131.187 157.025 132.612L157.194 136.662C157.201 136.828 157.174 136.993 157.115 137.149C157.056 137.304 156.966 137.446 156.851 137.566C156.735 137.686 156.597 137.782 156.444 137.847C156.29 137.913 156.125 137.947 155.959 137.948Z" fill="#AB76E0"/>
<path d="M140.524 148.161C140.826 147.984 141.085 147.743 141.282 147.455C141.48 147.167 141.612 146.84 141.669 146.496C141.726 146.152 141.707 145.799 141.612 145.464C141.518 145.128 141.351 144.817 141.122 144.552L145.4 137.225L140.985 137.473L137.599 144.393C137.179 144.804 136.924 145.355 136.884 145.941C136.844 146.527 137.021 147.107 137.382 147.571C137.742 148.036 138.261 148.352 138.841 148.461C139.42 148.57 140.019 148.463 140.524 148.161Z" fill="#FFB7B7"/>
<path d="M142.251 142.774L138.298 139.707L145.481 125.842L142.789 108.186C142.656 107.314 142.718 106.422 142.969 105.576C143.221 104.73 143.657 103.949 144.245 103.289C144.834 102.629 145.561 102.106 146.376 101.758C147.19 101.41 148.071 101.244 148.957 101.273C150.557 101.327 152.07 102.012 153.164 103.175C154.258 104.339 154.844 105.888 154.793 107.482L154.128 127.586L142.251 142.774Z" fill="#AB76E0"/>
<path d="M143.322 93.7981V87.2814C143.321 84.9654 144.243 82.7437 145.886 81.1051C147.529 79.4664 149.759 78.5449 152.084 78.5435C154.409 78.542 156.64 79.4606 158.285 81.0971C159.93 82.7337 160.855 84.9542 160.857 87.2701V87.2814C162.402 90.4885 161.435 92.0133 160.857 93.7981C160.856 94.1089 160.732 94.4068 160.511 94.6266C160.291 94.8463 159.991 94.97 159.679 94.9705H144.5C144.188 94.9702 143.889 94.8465 143.668 94.6268C143.447 94.407 143.323 94.109 143.322 93.7981Z" fill="#2F2E41"/>
<path d="M149.215 94.5471C152.839 94.5471 155.778 91.6206 155.778 88.0107C155.778 84.4007 152.839 81.4742 149.215 81.4742C145.591 81.4742 142.653 84.4007 142.653 88.0107C142.653 91.6206 145.591 94.5471 149.215 94.5471Z" fill="#FFB7B7"/>
<path d="M156.083 89.7242C156.023 89.7149 155.964 89.7024 155.905 89.693C154.881 89.5122 153.857 89.3345 152.837 89.1505L152.743 86.8463L151.506 88.9104C148.686 89.8427 146.047 89.3157 143.564 88.1527C142.746 87.7656 141.951 87.3293 141.185 86.8463C141.394 85.5719 141.886 84.3601 142.625 83.2995C143.364 82.2389 144.332 81.3563 145.458 80.7163C145.552 80.6633 145.643 80.6166 145.737 80.5698L145.738 80.5695L145.739 80.5689L145.74 80.5678L145.74 80.5666C145.9 80.4918 146.062 80.4201 146.225 80.3546C147.5 79.8586 148.889 79.7329 150.232 79.9924C151.576 80.2518 152.817 80.8856 153.813 81.8201C155.817 83.7252 156.718 86.8712 156.083 89.7242Z" fill="#2F2E41"/>
</g>
<defs>
<clipPath id="clip0_92_991">
<rect width="190" height="177" fill="white" transform="translate(0 0.5)"/>
</clipPath>
</defs>
</svg>
