<svg width="190" height="162" viewBox="0 0 190 162" fill="none" xmlns="http://www.w3.org/2000/svg">
<g clip-path="url(#clip0_113_695)">
<path d="M119.799 22.1998C118.004 25.9178 114.702 28.6856 111.242 30.9386C107.573 33.32 103.628 35.2475 99.4941 36.6791C98.9251 36.8782 98.3505 37.0688 97.7759 37.248H73.1755C73.0161 37.0659 72.8625 36.8753 72.7146 36.6791C71.17 34.6366 70.3422 32.0508 70.6522 29.5163C71.0591 26.1937 73.5823 23.1386 76.8564 22.4303C80.1306 21.7248 83.8627 23.679 84.8556 26.8764C85.4046 20.7121 86.036 14.2889 89.3131 9.03768C92.2801 4.28429 97.4232 0.882102 102.993 0.273349C106.269 -0.0678458 109.574 0.537309 112.517 2.0171C112.787 2.15364 113.054 2.29587 113.316 2.44379C115.082 3.4451 116.64 4.77463 117.907 6.36086C121.381 10.7587 122.231 17.1506 119.799 22.1998Z" fill="#F2F2F2"/>
<path d="M113.316 2.44396C113.323 2.51862 113.31 2.59379 113.28 2.66211C113.249 2.73043 113.201 2.78955 113.14 2.83369C101.998 11.9065 93.1865 23.5107 87.4385 36.6792C87.3531 36.867 87.2707 37.0576 87.191 37.2481H86.0589C86.1384 37.0576 86.2182 36.867 86.3007 36.6792C87.3788 34.1646 88.5707 31.7011 89.8763 29.2888C92.7022 24.0806 96.0271 19.1591 99.8041 14.5934C103.581 10.0222 107.799 5.83456 112.397 2.09124C112.434 2.06154 112.474 2.03668 112.517 2.01728C112.597 1.98284 112.684 1.96684 112.77 1.97048C112.857 1.97411 112.942 1.99728 113.019 2.03827C113.096 2.07926 113.163 2.13701 113.214 2.20724C113.265 2.27747 113.3 2.35838 113.316 2.44396Z" fill="white"/>
<path d="M113.786 36.679H5.40483C4.4713 36.6779 3.5536 36.9201 2.74214 37.3816C2.54778 37.4919 2.36063 37.6145 2.18183 37.7485C1.50478 38.2505 0.954757 38.9041 0.575865 39.6569C0.196972 40.4098 -0.000250634 41.241 8.83876e-06 42.0838V98.4077C0.00128256 99.8407 0.571126 101.215 1.58445 102.228C2.59777 103.241 3.97177 103.811 5.40483 103.812H113.786C115.219 103.811 116.593 103.241 117.606 102.228C118.619 101.215 119.189 99.8407 119.19 98.4077V42.0838C119.189 40.6507 118.619 39.2767 117.606 38.2634C116.593 37.2501 115.219 36.6803 113.786 36.679ZM118.622 98.4077C118.62 99.6897 118.11 100.919 117.203 101.825C116.297 102.732 115.068 103.242 113.786 103.244H5.40483C4.12283 103.242 2.89385 102.732 1.98734 101.825C1.08083 100.919 0.570751 99.6897 0.568937 98.4077V42.0838C0.572976 41.0618 0.898905 40.067 1.50043 39.2408C2.10196 38.4146 2.94851 37.7989 3.91986 37.4811C3.95973 37.4698 3.99667 37.4555 4.03654 37.4442C4.48088 37.3135 4.94168 37.2474 5.40483 37.2479H113.786C115.068 37.2497 116.297 37.7598 117.203 38.6663C118.11 39.5728 118.62 40.8018 118.622 42.0838V98.4077Z" fill="#3F3D56"/>
<path d="M152.819 110.148C153.194 109.904 153.51 109.581 153.746 109.202C153.982 108.823 154.132 108.396 154.185 107.953C154.238 107.509 154.193 107.059 154.054 106.635C153.915 106.21 153.684 105.821 153.378 105.496L155.077 85.239L150.211 85.7742L148.878 105.49C148.365 106.04 148.072 106.759 148.053 107.511C148.035 108.263 148.294 108.996 148.779 109.57C149.265 110.144 149.945 110.52 150.689 110.627C151.434 110.733 152.192 110.563 152.819 110.148Z" fill="#FFB8B8"/>
<path d="M135.501 158.465L132.013 158.464L130.354 145.013L135.501 145.013L135.501 158.465Z" fill="#FFB8B8"/>
<path d="M129.522 157.468H136.248V161.703H125.287C125.287 161.147 125.397 160.596 125.61 160.082C125.823 159.568 126.135 159.102 126.528 158.708C126.921 158.315 127.388 158.003 127.902 157.79C128.415 157.578 128.966 157.468 129.522 157.468Z" fill="#2F2E41"/>
<path d="M160.249 158.465L156.762 158.464L155.103 145.013L160.25 145.013L160.249 158.465Z" fill="#FFB8B8"/>
<path d="M154.271 157.468H160.996V161.703H150.036C150.036 160.58 150.482 159.503 151.276 158.708C152.07 157.914 153.147 157.468 154.271 157.468Z" fill="#2F2E41"/>
<path d="M135.56 150.133C135.522 150.133 135.484 150.132 135.446 150.128L130.51 149.733C130.314 149.718 130.123 149.662 129.95 149.569C129.777 149.476 129.625 149.348 129.504 149.194C129.383 149.039 129.295 148.861 129.246 148.671C129.197 148.481 129.188 148.283 129.219 148.089L136.703 101.801L137.204 95.2719C137.226 94.9667 137.347 94.6769 137.547 94.4461C137.748 94.2152 138.019 94.0557 138.318 93.9916L145.845 92.3451C146.122 92.2832 146.411 92.306 146.674 92.4106C146.938 92.5151 147.164 92.6965 147.323 92.9312L149.159 95.6139C149.879 96.6568 150.662 97.6551 151.504 98.6033C152.806 100.086 155.02 103.379 155.219 108.769C155.272 110.539 155.456 112.303 155.769 114.047L161.829 146.692C161.86 146.883 161.851 147.079 161.803 147.267C161.756 147.455 161.67 147.631 161.552 147.784C161.433 147.938 161.285 148.066 161.116 148.16C160.946 148.254 160.759 148.312 160.566 148.332L155.887 148.686C155.553 148.719 155.217 148.632 154.941 148.44C154.664 148.248 154.465 147.965 154.379 147.639L146.079 116.775C146.063 116.714 146.027 116.661 145.978 116.623C145.928 116.585 145.867 116.564 145.804 116.564C145.742 116.564 145.681 116.585 145.631 116.623C145.581 116.662 145.546 116.715 145.53 116.776L136.933 149.077C136.853 149.379 136.674 149.647 136.426 149.838C136.177 150.029 135.873 150.133 135.56 150.133Z" fill="#2F2E41"/>
<path d="M148.686 71.3679C152.544 71.3679 155.672 68.2398 155.672 64.3811C155.672 60.5225 152.544 57.3944 148.686 57.3944C144.827 57.3944 141.699 60.5225 141.699 64.3811C141.699 68.2398 144.827 71.3679 148.686 71.3679Z" fill="#FFB8B8"/>
<path d="M136.844 96.3224L136.699 86.345C136.167 79.9638 138.993 76.6133 141.457 74.9279C142.093 74.4988 142.809 74.2033 143.562 74.0592C144.315 73.915 145.09 73.9252 145.839 74.0892L151.338 75.2779C152.103 75.4447 152.827 75.7651 153.465 76.2197C154.104 76.6742 154.643 77.2535 155.051 77.9225C155.442 78.5537 155.698 79.2584 155.804 79.9929C155.91 80.7273 155.865 81.4758 155.669 82.1917C155.287 83.5318 154.44 84.6918 153.28 85.4636C148.555 88.7988 148.222 94.4012 148.22 94.4576L148.214 94.5734L136.844 96.3224Z" fill="#B585E4"/>
<path d="M154.051 88.9033H149.215C148.876 88.9029 148.551 88.7679 148.311 88.5279C148.071 88.2879 147.936 87.9626 147.935 87.6232V79.2315C147.935 78.2507 148.325 77.3101 149.018 76.6166C149.712 75.9231 150.653 75.5334 151.633 75.5334C152.614 75.5334 153.555 75.9231 154.248 76.6166C154.942 77.3101 155.331 78.2507 155.331 79.2315V87.6232C155.331 87.9626 155.196 88.2879 154.956 88.5279C154.716 88.7679 154.391 88.9029 154.051 88.9033Z" fill="#B585E4"/>
<path d="M121.583 90.4885C121.298 90.8285 120.944 91.1043 120.545 91.2978C120.146 91.4912 119.711 91.5978 119.267 91.6106C118.824 91.6235 118.383 91.5422 117.973 91.3722C117.563 91.2021 117.194 90.9472 116.89 90.6242C114.135 87.7344 118.639 83.3952 121.405 86.2912C121.503 86.3911 121.593 86.4975 121.676 86.6098L135.623 86.2632L137.287 83.2185L142.403 85.205C141.421 86.7282 140.293 92.7063 137.725 92.4152C137.388 92.4243 121.927 90.513 121.583 90.4885Z" fill="#FFB8B8"/>
<path d="M140.24 88.1848L136.342 85.3237C136.068 85.1226 135.886 84.8213 135.834 84.4858C135.783 84.1504 135.866 83.8082 136.067 83.5343L141.032 76.769C141.319 76.3775 141.681 76.0464 142.096 75.7946C142.511 75.5429 142.972 75.3754 143.452 75.3017C143.932 75.228 144.422 75.2496 144.894 75.3653C145.365 75.4809 145.81 75.6883 146.201 75.9756C146.593 76.2629 146.924 76.6246 147.175 77.0398C147.427 77.4551 147.595 77.9159 147.668 78.3959C147.742 78.8759 147.72 79.3658 147.605 79.8374C147.489 80.3091 147.282 80.7534 146.995 81.1449L142.03 87.9102C141.828 88.1836 141.527 88.366 141.192 88.4175C140.856 88.469 140.514 88.3853 140.24 88.1848Z" fill="#B585E4"/>
<path d="M150.085 68.0127C150.31 67.5423 150.389 67.0148 150.31 66.4993C150.23 65.9837 149.997 65.504 149.641 65.1229C148.327 63.7976 146.273 64.6816 144.497 64.5518C141.538 64.3357 139.523 60.8073 140.406 57.9752C141.29 55.143 144.429 53.3855 147.39 53.5718C150.351 53.7582 153.032 55.5898 154.816 57.9597C156.038 55.9938 159.038 55.7646 160.975 57.0318C162.912 58.2991 163.914 60.615 164.328 62.8921C164.742 65.1692 164.675 67.5093 165.023 69.7973C165.869 75.3436 169.448 80.5662 174.628 82.7221C179.807 84.8781 186.435 83.4925 189.824 79.0211C190.483 84.4397 189.327 89.9239 186.537 94.6157C183.747 99.3075 179.481 102.942 174.405 104.951C171.599 106.062 168.499 106.652 165.544 106.034C160.774 105.037 157.063 100.958 155.446 96.3604C153.829 91.7631 154.023 86.7186 154.808 81.9089C155.292 78.9464 155.828 75.4379 153.667 73.3542C153.06 72.8494 152.347 72.4896 151.58 72.3021C151.174 72.18 150.801 71.9668 150.489 71.6786C150.178 71.3904 149.936 71.0349 149.783 70.6392C149.629 70.2435 149.568 69.818 149.604 69.3952C149.64 68.9724 149.772 68.5633 149.991 68.1992C150.026 68.1373 150.057 68.0752 150.085 68.0127Z" fill="#2F2E41"/>
<path d="M175.167 161.823H110.309C110.234 161.823 110.161 161.793 110.108 161.74C110.055 161.687 110.025 161.614 110.025 161.539C110.025 161.463 110.055 161.391 110.108 161.338C110.161 161.284 110.234 161.254 110.309 161.254H175.167C175.243 161.254 175.315 161.284 175.368 161.338C175.422 161.391 175.452 161.463 175.452 161.539C175.452 161.614 175.422 161.687 175.368 161.74C175.315 161.793 175.243 161.823 175.167 161.823Z" fill="#3F3D56"/>
<path d="M59.4767 70.222C59.0451 70.2218 58.6204 70.1123 58.2425 69.9037L1.62184 38.7399C1.55575 38.7035 1.50682 38.6424 1.48581 38.5699C1.4648 38.4975 1.47344 38.4197 1.50982 38.3536C1.54619 38.2875 1.60734 38.2386 1.67979 38.2176C1.75225 38.1965 1.83007 38.2052 1.89616 38.2416L58.5168 69.4054C58.8056 69.5648 59.1295 69.6498 59.4593 69.6527C59.7891 69.6556 60.1145 69.5764 60.406 69.422L117.959 39.0613C117.992 39.0438 118.028 39.033 118.065 39.0295C118.102 39.0259 118.14 39.0298 118.176 39.0408C118.211 39.0518 118.245 39.0698 118.273 39.0936C118.302 39.1175 118.326 39.1468 118.343 39.1799C118.361 39.213 118.372 39.2492 118.375 39.2864C118.379 39.3236 118.375 39.3612 118.364 39.3969C118.352 39.4326 118.334 39.4658 118.311 39.4945C118.287 39.5233 118.257 39.547 118.224 39.5644L60.6715 69.9251C60.3033 70.1199 59.8932 70.2217 59.4767 70.222Z" fill="#3F3D56"/>
<path d="M18.0824 89.5894H10.1174C9.51388 89.5894 8.93506 89.3496 8.50828 88.9228C8.0815 88.4961 7.84173 87.9172 7.84173 87.3137C7.84173 86.7101 8.0815 86.1313 8.50828 85.7045C8.93506 85.2777 9.51388 85.038 10.1174 85.038H18.0824C18.686 85.038 19.2648 85.2777 19.6916 85.7045C20.1184 86.1313 20.3581 86.7101 20.3581 87.3137C20.3581 87.9172 20.1184 88.4961 19.6916 88.9228C19.2648 89.3496 18.686 89.5894 18.0824 89.5894Z" fill="#150426"/>
<path d="M27.4697 97.2699H10.1174C9.51388 97.2699 8.93506 97.0302 8.50828 96.6034C8.0815 96.1766 7.84173 95.5978 7.84173 94.9942C7.84173 94.3907 8.0815 93.8118 8.50828 93.385C8.93506 92.9583 9.51388 92.7185 10.1174 92.7185H27.4697C28.0733 92.7185 28.6521 92.9583 29.0789 93.385C29.5057 93.8118 29.7455 94.3907 29.7455 94.9942C29.7455 95.5978 29.5057 96.1766 29.0789 96.6034C28.6521 97.0302 28.0733 97.2699 27.4697 97.2699Z" fill="#150426"/>
<path d="M59.454 79.3486C64.4814 79.3486 68.5569 75.2732 68.5569 70.2458C68.5569 65.2184 64.4814 61.1429 59.454 61.1429C54.4267 61.1429 50.3512 65.2184 50.3512 70.2458C50.3512 75.2732 54.4267 79.3486 59.454 79.3486Z" fill="#B585E4"/>
</g>
<defs>
<clipPath id="clip0_113_695">
<rect width="190" height="161.647" fill="white" transform="translate(0 0.176636)"/>
</clipPath>
</defs>
</svg>
